<?xml version="1.0" standalone="no"?>
<!DOCTYPE svg PUBLIC "-//W3C//DTD SVG 1.1//EN" "http://www.w3.org/Graphics/SVG/1.1/DTD/svg11.dtd">
<svg width="100%" height="100%" viewBox="0 0 539 345" version="1.1" xmlns="http://www.w3.org/2000/svg" xmlns:xlink="http://www.w3.org/1999/xlink" xml:space="preserve" style="fill-rule:evenodd;clip-rule:evenodd;stroke-linejoin:round;stroke-miterlimit:1.41421;">
    <g transform="matrix(1,0,0,1,-3.80198,2.84217e-14)">
        <g>
            <path d="M75.682,222.924C71.42,227.03 67.14,231.131 61.3,233.23C61.3,214.016 61.3,194.919 61.3,175.767C63.856,175.433 66.231,174.665 68.422,173.374C70.625,172.076 72.585,170.489 74.235,168.509C74.141,168.365 74.07,168.243 73.985,168.133C73.902,168.024 73.805,167.926 73.706,167.814C69.543,169.618 65.835,168.712 62.489,165.943C61.081,164.778 59.797,163.464 58.371,162.137C48.546,168.519 38.067,174.106 27.417,179.495C27.794,180.32 28.138,181.07 28.487,181.833C30.762,180.703 32.943,179.62 35.205,178.497C35.222,178.83 35.239,178.998 35.239,179.165C35.24,192.372 35.276,205.579 35.213,218.786C35.198,221.828 35.02,224.915 32.911,227.421C33.325,228.048 33.817,228.123 34.462,227.843C35.962,227.194 37.508,226.644 38.991,225.958C43.473,223.884 46.496,220.56 47.349,215.597C47.729,213.382 47.932,211.109 47.942,208.861C47.998,196.616 47.965,184.371 47.987,172.126C47.988,171.807 48.187,171.325 48.428,171.216C48.673,171.105 49.163,171.266 49.41,171.472C51.8,173.454 54.511,174.791 57.5,175.575C58.027,175.713 58.295,175.89 58.294,176.52C58.275,195.581 58.276,214.642 58.292,233.703C58.292,234.309 58.073,234.518 57.519,234.663C51.527,236.23 45.488,236.334 39.481,234.95C30.675,232.922 24.285,227.759 20.403,219.576C18.021,214.555 17.016,209.203 16.713,203.685C16.415,198.231 16.859,192.856 18.211,187.561C20.563,178.35 25.777,171.08 33.269,165.352C33.78,164.962 34.287,164.567 34.824,164.153C34.497,163.644 34.211,163.198 33.916,162.738C33.735,162.798 33.601,162.827 33.48,162.884C26.713,166.044 20.775,170.321 15.817,175.932C11.243,181.109 7.904,186.987 5.893,193.59C3.379,201.848 3.164,210.224 5.075,218.614C7.595,229.677 13.624,238.114 24.045,243.057C30.499,246.119 37.363,246.999 44.437,246.557C51.241,246.132 57.373,243.839 62.888,239.874C68.421,235.895 72.582,230.688 76.128,224.941C76.816,223.823 76.814,223.822 75.682,222.924Z" style="fill:rgb(128,129,132);fill-rule:nonzero;"/>
            <path d="M123.762,236.353C121.31,237.071 118.839,235.842 118.247,233.369C117.837,231.656 117.618,229.859 117.605,228.098C117.543,219.278 117.582,210.457 117.563,201.636C117.562,201.075 117.732,200.772 118.23,200.52C119.849,199.703 121.189,198.544 122.159,197.003C122.742,196.078 123.153,195.077 123.137,193.878C122.908,193.947 122.774,193.979 122.646,194.028C118.429,195.653 115.709,194.877 113.057,191.255C112.502,190.497 112.031,189.678 111.495,188.848C111.264,189.171 111.072,189.449 110.871,189.719C109.145,192.042 107.309,194.256 104.833,195.836C101.101,198.218 97.325,197.538 94.867,193.904C93.825,192.362 93.058,190.633 92.143,188.948C88.149,192.942 83.488,196.201 78.14,198.607C82.296,203.278 86.379,207.866 90.474,212.467C89.148,213.504 87.873,214.44 86.665,215.455C80.79,220.396 77.563,226.443 78.859,234.351C79.453,237.975 81.069,241.008 83.976,243.323C87.287,245.96 91.124,247.08 95.276,247.297C95.569,247.313 95.938,247.167 96.164,246.971C97.229,246.045 98.256,245.074 99.297,244.12C101.524,242.082 103.752,240.045 106.096,237.901C106.327,238.673 106.493,239.327 106.717,239.962C107.807,243.063 109.62,245.524 112.882,246.572C114.001,246.931 115.194,247.056 116.352,247.3C116.862,247.408 117.143,247.212 117.444,246.779C119.701,243.535 122.001,240.319 124.273,237.085C124.411,236.889 124.429,236.608 124.502,236.368C124.255,236.359 123.988,236.287 123.762,236.353ZM105.71,209.041L105.71,236.074C100.621,237.21 95.457,236.377 91.987,231.593C88.521,226.814 88.492,219.768 91.912,214.963C91.992,214.851 92.081,214.745 92.231,214.554C94.907,217.514 97.554,220.441 100.252,223.425C101.097,222.761 101.909,222.123 102.819,221.406C97.108,214.978 91.416,208.572 85.723,202.166C91.282,204.723 96.457,204.053 101.125,200.59C102.607,201.472 103.991,202.268 105.334,203.123C105.548,203.26 105.688,203.666 105.693,203.951C105.726,205.647 105.71,207.344 105.71,209.041Z" style="fill:rgb(128,129,132);fill-rule:nonzero;"/>
            <path d="M173.375,189.394C172.82,189.242 172.289,189.15 171.803,188.948C171.229,188.711 170.951,188.906 170.659,189.404C170.028,190.48 169.107,191.258 167.945,191.734C165.549,192.715 163.116,192.732 160.796,191.641C159.258,190.918 157.871,189.876 156.565,189.068C154.96,190.311 153.422,191.829 151.604,192.846C146.446,195.732 140.824,196.089 135.08,195.357C133.947,195.212 132.83,194.948 131.77,194.752C132.186,195.917 132.708,197.024 132.96,198.19C133.221,199.393 133.304,200.653 133.317,201.889C133.367,206.411 133.406,210.935 133.341,215.457C133.317,217.167 133.099,218.893 132.785,220.577C132.577,221.685 132.039,222.732 131.622,223.881C134.679,223.881 137.717,223.881 141.009,223.881C139.92,225.075 139.005,226.064 138.104,227.066C134.219,231.386 130.638,235.927 128.142,241.217C127.419,242.752 126.889,244.377 126.249,246.013C127.183,246.265 127.909,246.461 128.669,246.667C128.812,246.344 128.934,246.063 129.061,245.784C129.743,244.284 130.736,243.035 132.148,242.168C135.955,239.832 141.04,240.567 144.224,243.948C145.18,244.962 146.011,246.092 146.99,247.278C147.126,247.091 147.244,246.897 147.393,246.731C149.052,244.889 150.923,243.307 153.178,242.244C156.558,240.65 160.176,240.16 163.867,240.009C166.654,239.895 169.392,240.034 171.978,241.231C172.008,241.246 172.072,241.19 172.165,241.146C170.996,239.141 170.524,236.924 170.498,234.656C170.43,228.866 170.443,223.075 170.494,217.285C170.511,215.351 170.921,213.471 172.049,211.823C172.103,211.744 172.111,211.633 172.177,211.411C167.448,211.411 162.813,211.411 158.309,211.411C161.107,207.942 163.978,204.534 166.677,200.994C169.386,197.44 171.604,193.574 173.375,189.394ZM158.481,218.472C158.481,218.851 158.481,219.153 158.481,219.454C158.481,225.023 158.468,230.593 158.498,236.162C158.501,236.85 158.28,237.076 157.64,237.319C156.095,237.906 154.987,237.583 153.758,236.434C152.373,235.14 150.764,233.98 149.063,233.154C146.007,231.672 142.804,231.961 139.686,233.144C138.437,233.618 137.241,234.229 136.02,234.778C135.987,234.747 135.955,234.716 135.923,234.684C137.428,232.829 138.841,230.888 140.461,229.138C143.664,225.678 146.979,222.322 150.256,218.931C150.442,218.74 150.704,218.494 150.933,218.492C153.412,218.46 155.893,218.472 158.481,218.472ZM155.81,209.38C153.5,211.742 151.142,214.06 148.773,216.364C148.487,216.641 148.006,216.805 147.598,216.849C146.879,216.927 146.144,216.87 145.363,216.87C145.343,216.51 145.315,216.236 145.314,215.962C145.312,210.281 145.328,204.6 145.293,198.919C145.288,198.209 145.542,198.012 146.17,197.784C147.917,197.151 149.204,197.433 150.753,198.678C154.978,202.072 158.921,201.636 163.383,199.002C163.786,198.764 164.166,198.487 164.557,198.229C162.078,202.341 159.115,206.001 155.81,209.38Z" style="fill:rgb(128,129,132);fill-rule:nonzero;"/>
            <path d="M260.498,220.958C264.972,218.153 269.412,215.293 273.904,212.519C276.422,210.964 279.021,209.54 281.675,208.003C277.516,201.903 273.866,195.627 271.192,188.769C270.818,188.971 270.547,189.116 270.279,189.263C265.541,191.854 260.685,194.17 255.468,195.649C253.315,196.259 251.136,196.677 248.878,196.515C247.752,196.434 246.623,196.393 245.345,196.326C246.662,197.859 247.452,199.471 247.642,201.315C247.81,202.942 247.963,204.58 247.968,206.213C247.998,215.545 247.978,224.876 247.994,234.208C247.995,234.784 247.826,235.134 247.33,235.441C245.336,236.675 243.699,238.306 242.277,240.157C242.133,240.345 242.12,240.634 242.046,240.876C242.298,240.925 242.559,241.04 242.802,241.011C243.865,240.884 244.919,240.647 245.985,240.571C250.547,240.245 254.949,241.131 259.178,242.714C262.599,243.995 265.902,245.592 269.261,247.051C272.675,242.904 276.224,238.592 279.816,234.228C279.289,233.755 278.673,233.204 278.195,232.775C277.207,233.685 276.29,234.446 275.478,235.306C274.974,235.84 274.582,235.947 273.898,235.621C270.96,234.222 267.889,233.185 264.697,232.545C263.129,232.23 261.539,232.027 259.917,231.767C259.906,231.527 259.886,231.277 259.885,231.027C259.883,228.058 259.898,225.089 259.871,222.119C259.866,221.573 260.032,221.25 260.498,220.958ZM259.863,199.182C259.858,198.38 260.069,197.921 260.842,197.7C261.242,197.585 261.614,197.372 261.996,197.205C264.593,201.851 267.138,206.403 269.704,210.994C266.492,213.02 263.239,215.071 259.883,217.188C259.883,216.819 259.883,216.521 259.883,216.224C259.884,210.542 259.902,204.862 259.863,199.182Z" style="fill:rgb(128,129,132);fill-rule:nonzero;"/>
            <path d="M207.163,236.031C206.855,235.861 206.71,235.777 206.561,235.7C204.49,234.624 202.436,233.513 200.334,232.498C199.808,232.244 199.815,231.931 199.815,231.505C199.816,221.128 199.816,210.752 199.818,200.376C199.818,200.131 199.849,199.885 199.881,199.393C203.058,199.706 206.171,200.013 209.175,200.309C209.175,197.313 209.175,194.18 209.175,190.998C206.132,191.764 203.026,191.96 199.819,191.992C199.847,185.801 200.295,179.754 201.756,173.539C197.129,177.249 192.7,180.806 186.646,181.017C186.885,181.702 187.226,182.294 187.287,182.914C187.542,185.464 187.756,188.019 187.899,190.578C187.985,192.139 187.915,192.142 186.374,191.99C186.317,191.985 186.263,191.963 186.207,191.958C184.163,191.794 182.119,191.63 180.165,191.475C180.165,194.317 180.165,197.18 180.165,200.128C180.232,200.124 180.438,200.113 180.643,200.095C182.695,199.915 184.743,199.701 186.797,199.565C187.909,199.492 187.915,199.55 187.915,200.646C187.915,211.531 187.903,222.417 187.937,233.302C187.939,234.177 187.661,234.665 186.935,235.117C184.694,236.511 182.695,238.201 180.834,240.497C181.369,240.587 181.735,240.737 182.077,240.693C185.669,240.232 189.168,240.546 192.33,242.388C194.758,243.803 197.022,245.499 198.997,246.828C202.737,243.231 206.558,239.555 210.417,235.842C209.928,235.382 209.359,234.847 208.653,234.183C208.133,234.827 207.639,235.44 207.163,236.031Z" style="fill:rgb(128,129,132);fill-rule:nonzero;"/>
            <path d="M236.333,237.09C234.537,235.888 232.849,234.71 231.103,233.622C230.526,233.263 230.308,232.908 230.309,232.229C230.34,215.579 230.334,198.929 230.369,182.279C230.379,177.555 230.809,172.864 231.869,168.247C232.106,167.214 232.346,166.183 232.592,165.117C232.462,165.146 232.397,165.143 232.356,165.173C231.968,165.455 231.588,165.749 231.198,166.029C226.582,169.34 222.039,172.816 215.967,172.774C216.505,173.832 217.113,174.765 217.471,175.785C218.371,178.351 218.433,181.059 218.44,183.733C218.479,200.412 218.455,217.09 218.476,233.769C218.477,234.458 218.236,234.825 217.677,235.182C215.67,236.462 213.802,237.917 212.169,239.993C212.547,240.104 212.858,240.309 213.109,240.251C215.052,239.801 216.853,240.22 218.621,241.012C221.241,242.184 223.609,243.762 225.894,245.476C226.676,246.062 227.433,246.683 228.129,247.231C232.038,244.009 235.867,240.852 239.74,237.659C239.232,237.017 238.752,236.412 238.265,235.797C237.529,236.287 236.879,236.724 236.333,237.09Z" style="fill:rgb(128,129,132);fill-rule:nonzero;"/>
            <path d="M540.344,235.319C539.949,235.32 539.557,235.421 539.164,235.437C537,235.526 535.734,234.581 535.314,232.451C535.109,231.405 534.972,230.326 534.97,229.263C534.941,220.837 534.982,212.41 534.923,203.984C534.915,202.676 535.247,201.769 536.198,200.831C538.083,198.972 538.985,196.557 539.378,193.961C539.409,193.763 539.245,193.536 539.169,193.323C538.978,193.395 538.769,193.436 538.599,193.545C538.267,193.757 537.98,194.043 537.64,194.235C534.816,195.822 531.349,195.369 528.986,193.004C527.695,191.711 526.545,190.275 525.277,188.843C520.384,192.986 515.15,196.781 509.449,200.105C509.347,199.249 509.277,198.525 509.174,197.808C508.703,194.524 507.301,191.823 504.207,190.3C503.055,189.731 501.807,189.334 500.57,188.96C500.226,188.855 499.675,188.987 499.382,189.218C495.329,192.427 491.31,195.681 487.267,198.904C486.285,199.687 485.247,200.401 484.163,201.2C483.997,199.938 483.876,198.825 483.704,197.719C483.059,193.588 481.233,190.365 476.991,188.98C476.512,188.824 476.245,188.837 475.944,189.285C473.926,192.297 471.321,194.76 468.544,197.051C467.396,197.998 466.204,198.89 464.786,199.998C465.347,200.221 465.708,200.457 466.089,200.5C469.208,200.849 471.085,202.198 471.788,204.744C472.011,205.554 472.177,206.41 472.179,207.245C472.208,216.096 472.204,224.947 472.183,233.797C472.183,234.062 471.97,234.454 471.744,234.573C469.105,235.963 467.203,238.08 465.726,240.612C465.562,240.893 465.603,241.295 465.55,241.64C465.878,241.626 466.238,241.692 466.532,241.584C468.684,240.789 470.864,240.558 473.081,241.257C474.788,241.794 476.186,242.843 477.505,244.012C478.622,245.002 479.741,245.986 480.761,246.885C483.546,243.802 486.523,240.507 489.534,237.174C488.186,235.883 486.645,234.57 484.811,233.643C484.393,233.431 484.088,233.232 484.088,232.652C484.109,223.519 484.1,214.385 484.121,205.251C484.121,204.967 484.301,204.58 484.523,204.417C486.535,202.957 488.574,201.534 490.609,200.108C490.789,199.983 490.998,199.848 491.205,199.822C493.197,199.57 495.799,201.041 496.648,202.874C497.451,204.607 497.628,206.459 497.63,208.33C497.644,216.615 497.63,224.9 497.65,233.185C497.652,233.782 497.47,234.169 497.013,234.546C494.706,236.45 492.714,238.625 491.382,241.325C491.626,241.872 491.95,241.849 492.415,241.612C494.04,240.779 495.761,240.652 497.522,241.056C499.678,241.549 501.575,242.616 503.362,243.862C504.883,244.923 506.329,246.092 507.735,247.16C511.102,243.883 514.454,240.621 517.817,237.347C517.811,237.338 517.803,237.27 517.764,237.24C515.446,235.421 513.065,233.711 510.16,232.921C509.748,232.808 509.5,232.662 509.502,232.131C509.522,222.8 509.514,213.469 509.527,204.137C509.527,203.893 509.64,203.533 509.82,203.422C511.806,202.194 513.816,201.004 515.838,199.793C516.02,200.029 516.152,200.21 516.291,200.385C517.848,202.332 519.752,203.793 522.195,204.421C522.875,204.595 523.068,204.878 523.066,205.568C523.039,213.769 523.033,221.969 523.058,230.17C523.066,232.627 523.111,235.089 523.287,237.538C523.512,240.667 524.484,243.549 527.324,245.251C528.795,246.132 530.545,246.541 532.164,247.176C532.809,247.429 533.144,247.125 533.535,246.632C536.308,243.137 539.117,239.67 541.912,236.192C542.045,236.026 542.16,235.848 542.476,235.409C541.61,235.367 540.977,235.317 540.344,235.319Z" style="fill:rgb(128,129,132);fill-rule:nonzero;"/>
            <path d="M370.747,165.621C367.733,168.161 364.212,168.029 361.362,165.327C360.276,164.296 359.1,163.362 357.964,162.383C358.05,162.205 357.862,162.327 357.675,162.45C352.107,166.111 346.517,169.738 340.987,173.455C339.642,174.358 338.364,175.437 337.289,176.643C335.479,178.672 335.142,181.25 335.141,183.865C335.133,200.293 335.149,216.72 335.113,233.148C335.11,234.397 334.912,235.689 334.552,236.884C333.857,239.196 332.355,240.249 329.941,240.211C328.794,240.192 327.576,240.14 326.519,239.752C324.119,238.871 321.781,237.81 319.449,236.752C316.394,235.366 313.426,233.775 310.318,232.527C307.466,231.383 304.435,231.071 301.455,232.135C298.898,233.046 296.857,234.744 295.044,236.731C292.943,239.031 291.487,241.713 290.237,244.603C290.537,244.757 290.775,244.88 291.031,245.012C291.152,244.855 291.24,244.747 291.322,244.635C293.566,241.609 296.133,240.585 299.761,241.614C302.63,242.428 305.409,243.559 308.236,244.526C311.388,245.604 314.541,246.681 317.935,246.675C320.648,246.671 323.247,246.016 325.831,245.296C332.254,243.505 338.105,240.642 343.062,236.086C346.337,233.076 348.089,229.502 347.966,224.94C347.814,219.232 347.931,213.518 347.931,207.806C347.931,207.479 347.931,207.152 347.931,206.823C351.458,206.823 354.859,206.823 358.357,206.823C358.357,215.892 358.357,224.894 358.357,233.889C359.373,233.889 360.287,233.889 361.257,233.889C361.257,233.429 361.257,233.035 361.257,232.641C361.257,214.12 361.261,195.601 361.239,177.081C361.237,176.34 361.458,175.98 362.145,175.714C364.143,174.941 365.889,173.747 367.43,172.267C369.436,170.339 371.112,168.157 372.463,165.653C372.188,165.4 371.94,165.173 371.617,164.88C371.303,165.148 371.026,165.386 370.747,165.621ZM358.286,195.317C354.878,195.317 351.479,195.317 347.983,195.317C347.965,195.007 347.932,194.683 347.932,194.359C347.928,187.524 347.95,180.688 347.907,173.853C347.901,172.925 348.167,172.353 349.022,172.048C353.346,175.462 353.346,175.462 358.286,176.72C358.286,182.884 358.286,189.061 358.286,195.317Z" style="fill:rgb(128,129,132);fill-rule:nonzero;"/>
            <path d="M419.106,236.359C416.76,237.068 414.274,235.86 413.665,233.493C413.257,231.897 413.011,230.213 413.001,228.566C412.939,219.575 412.974,210.584 412.962,201.593C412.96,201.084 413.122,200.82 413.562,200.526C414.632,199.807 415.714,199.064 416.628,198.163C417.788,197.017 418.45,195.563 418.558,193.851C412.562,196.193 409.792,194.092 406.898,188.831C406.617,189.214 406.357,189.579 406.087,189.934C404.214,192.396 402.249,194.767 399.462,196.264C397.247,197.452 394.187,197.847 391.663,195.54C390.352,194.341 389.403,192.875 388.679,191.265C388.322,190.475 388.007,189.667 387.652,188.812C383.523,192.941 378.865,196.206 373.533,198.617C377.685,203.282 381.758,207.857 385.845,212.449C384.413,213.585 382.982,214.639 381.646,215.799C376.255,220.478 373.191,226.157 374.115,233.533C374.594,237.356 376.103,240.623 379.113,243.121C382.492,245.928 386.463,247.093 390.769,247.304C391.029,247.317 391.353,247.14 391.56,246.954C392.869,245.788 394.15,244.593 395.443,243.411C397.42,241.603 399.398,239.798 401.5,237.88C401.682,238.528 401.803,239.016 401.955,239.495C402.664,241.744 403.73,243.767 405.66,245.227C407.558,246.666 409.783,247.123 412.088,247.296C412.291,247.311 412.578,247.078 412.717,246.883C415.029,243.643 417.328,240.393 419.612,237.133C419.766,236.916 419.784,236.605 419.864,236.338C419.61,236.343 419.338,236.289 419.106,236.359ZM401.09,235.08C401.09,235.416 401.09,235.752 401.09,236.072C396.088,237.195 391.069,236.384 387.625,231.939C383.955,227.205 383.791,219.919 387.238,215.037C387.334,214.9 387.443,214.772 387.613,214.554C390.287,217.513 392.931,220.438 395.633,223.429C396.453,222.78 397.268,222.137 398.194,221.404C392.456,214.944 386.751,208.523 381.048,202.103C386.62,204.752 391.8,204.036 396.486,200.602C397.988,201.486 399.375,202.275 400.722,203.124C400.933,203.258 401.074,203.666 401.076,203.949C401.099,207.681 401.092,211.413 401.092,215.146C401.09,221.79 401.09,228.435 401.09,235.08Z" style="fill:rgb(128,129,132);fill-rule:nonzero;"/>
            <path d="M459.112,195.549C457.223,195.681 455.856,194.507 454.889,193.004C454.075,191.74 453.459,190.349 452.729,188.965C449.657,193.772 446.081,198.215 441.823,202.29C441.1,196.606 439.821,191.379 433.964,188.764C430.837,193.132 426.985,196.709 422.392,199.952C422.996,200.196 423.382,200.454 423.792,200.501C427.366,200.905 429.173,202.554 429.72,206.037C429.855,206.898 429.89,207.782 429.892,208.655C429.904,216.77 429.892,224.885 429.912,233C429.914,233.59 429.726,233.888 429.195,234.164C426.295,235.676 424.25,238.053 422.65,240.847C422.548,241.023 422.586,241.407 422.716,241.552C422.849,241.699 423.181,241.725 423.419,241.704C423.63,241.685 423.825,241.517 424.036,241.437C427.028,240.301 430.056,239.979 432.964,241.564C435.185,242.775 437.292,244.199 439.423,245.572C440.216,246.082 440.931,246.712 441.564,247.197C445.736,243.066 449.806,239.032 453.908,234.97C453.361,234.36 452.744,233.671 452.105,232.959C451.144,233.764 450.216,234.538 449.498,235.14C446.965,234.047 444.586,233.037 442.228,231.979C442.007,231.88 441.785,231.491 441.785,231.235C441.762,223.149 441.764,215.062 441.775,206.975C441.775,206.717 441.839,206.376 442.009,206.214C443.374,204.911 444.773,203.641 446.144,202.375C446.945,203.011 447.718,203.721 448.582,204.296C452.564,206.952 457.596,206.402 460.598,203.015C462.807,200.522 463.299,197.453 463.569,194.124C463.188,194.31 462.975,194.451 462.741,194.523C461.534,194.892 460.34,195.463 459.112,195.549Z" style="fill:rgb(128,129,132);fill-rule:nonzero;"/>
            <path d="M317.108,220.854C317.094,223.959 316.768,226.998 314.719,229.784C315.221,229.832 315.644,230.009 315.922,229.878C319.295,228.293 322.66,226.689 325.434,224.104C327.422,222.25 328.985,220.132 329.409,217.386C329.662,215.745 329.833,214.076 329.845,212.418C329.911,203.063 329.9,193.708 329.96,184.354C329.972,182.667 330.115,180.97 330.362,179.302C330.502,178.356 330.975,177.46 331.362,176.364C330.939,176.364 330.507,176.228 330.251,176.385C327.024,178.359 323.751,180.271 320.987,182.905C319.585,184.241 318.202,185.613 317.76,187.573C317.44,188.994 317.262,190.456 317.133,191.91C317.034,193.026 317.113,194.159 317.113,195.398C316.678,195.398 316.32,195.391 315.962,195.399C313.648,195.451 311.32,195.439 309.117,196.303C306.804,197.212 305.157,198.78 304.879,201.335C304.715,202.829 304.717,204.394 304.975,205.868C305.403,208.329 306.678,210.215 309.457,210.764C309.523,210.387 309.562,210.081 309.631,209.783C309.871,208.743 310.196,207.755 311.311,207.307C313.176,206.557 315.116,206.762 317.114,206.786C317.114,207.182 317.114,207.488 317.114,207.794C317.114,212.147 317.129,216.501 317.108,220.854Z" style="fill:rgb(128,129,132);fill-rule:nonzero;"/>
            <path d="M298.895,175.852C301.045,172.778 304.043,171.927 307.604,172.6C310.932,173.229 314.253,173.886 317.59,174.46C320.434,174.95 323.303,175.19 326.189,174.821C330.239,174.303 333.585,172.356 336.565,169.676C338.633,167.816 340.426,165.725 341.911,163.302C341.643,163.098 341.403,162.912 341.145,162.714C340.553,163.166 340.043,163.567 339.524,163.952C337.42,165.513 334.987,165.458 332.601,165.153C329.022,164.695 325.463,164.063 321.907,163.441C318.47,162.84 315.032,162.423 311.546,162.897C304.011,163.919 299.702,169.719 297.691,175.965C298.116,176.195 298.489,176.433 298.895,175.852Z" style="fill:rgb(128,129,132);fill-rule:nonzero;"/>
        </g>
        <path d="M224.572,0C224.572,0 227.576,1.789 229.195,7.526C230.812,13.263 229.207,11.304 229.856,16.502C234.451,22.842 238.941,26.393 249.239,29.119C249.239,29.119 253.074,32.308 278.172,29.034C303.27,25.759 308.62,24.824 318.905,26.171C329.191,27.519 334.766,28.002 338.229,30.661C341.813,32.5 347.868,37.968 347.868,47.88C346.028,52.26 343.455,53.827 343.455,53.827C343.455,53.827 343.835,58.229 342.201,62.721C340.568,67.213 334.891,75.359 337.35,78.36C339.812,81.36 341.782,83.543 342.617,85.975C343.455,88.406 338.416,101.368 337.562,103.844C336.708,106.322 336.768,110.805 337.499,112.457C338.228,114.108 337.311,114.632 335.511,116.289C333.711,117.945 332.96,119.284 332.96,119.284C332.96,119.284 326.482,120.247 325.588,118.765C324.693,117.285 326.971,117.78 329.492,110.812C330.996,101.589 330.87,93.354 330.87,93.354L327.704,87.343C327.704,87.343 325.968,90.012 324.603,93.235C323.236,96.457 324.436,92.027 321.669,99.895C318.903,107.763 317.53,108.992 317.53,111.31C317.53,113.628 318.344,112.957 317.332,115.359C316.319,117.762 315.591,115.65 314.69,119.071C310.027,120.056 304.944,119.1 304.944,119.1C304.944,119.1 308.947,112.043 311.819,105.969C314.69,99.895 315.428,95.293 313.624,92.406C312.206,87.354 313.257,87.761 310.357,85.26C307.459,82.76 306.872,80.061 306.872,80.061C306.872,80.061 290.456,84.465 274.662,82.263C258.865,80.061 258.603,82.582 258.603,82.582C258.603,82.582 260.823,93.747 259.264,97.47C259.56,104.05 260.583,106.969 261.381,109.139C262.179,111.309 263.09,114.131 260.847,115.754C258.603,117.377 258.689,120.097 258.689,120.097C258.689,120.097 252.495,120.924 251.601,120.012C250.707,119.099 254.436,115.941 254.436,114.199C254.436,112.458 251.807,101.855 251.807,100.238C251.807,98.621 250.366,96.23 250.366,96.23L249.615,97.278L248.978,102.775C248.978,102.775 247.783,105.895 247.783,107.518C247.783,109.141 248.892,111.793 248.892,111.793C248.892,111.793 250.235,113.148 247.621,116.125C245.009,119.101 245.47,120.133 241.655,120.133C237.841,120.133 238.33,119.006 238.33,119.006C238.33,119.006 241.191,114.514 241.191,113.154C241.191,111.793 243.439,102.729 241.72,99.109C240,95.489 238.207,94.154 239.197,84.521C237.83,80.177 237.49,80.962 235.953,78.896C234.416,76.829 228.438,68.354 226.504,62.792C224.569,57.23 221.623,52.606 220.819,49.211C220.017,45.816 217.791,41.109 211.125,44.496C204.458,47.884 199.427,49.761 195.599,47.625C191.771,45.489 192.403,41.499 192.403,39.166C192.403,36.832 192.919,37.59 196.519,31.095C200.118,24.599 201.833,19.996 213.202,14.668C211.314,6.971 211.206,3.39 215.253,3.39C218.668,6.624 219.164,8.622 219.164,8.622C219.164,8.622 220.958,12.785 222.398,8.087C223.117,2.593 224.572,0 224.572,0Z" style="fill:rgb(128,129,132);fill-rule:nonzero;"/>
        <g transform="matrix(-1,0,-0,1,553.361,0)">
            <path d="M484.079,300.052L63.475,300.052L73.475,321.089L63.475,344.076L484.079,344.076L474.079,321.089L484.079,300.052Z" style="fill:rgb(128,129,132);"/>
        </g>
    </g>
</svg>
