<svg version="1.1" id="Layer_1" xmlns="http://www.w3.org/2000/svg" xmlns:xlink="http://www.w3.org/1999/xlink" x="0px" y="0px"
	 width="508.345px" height="473.203px" viewBox="0 0 508.345 473.203" enable-background="new 0 0 508.345 473.203"
	 xml:space="preserve">
<g>
	<path fill="#FFFFFF" d="M485.458,359.7l-0.001-296.027l-0.274-0.865c-3.074-4.355-12.526-6.887-19.915-8.243l-1.771,1.476v13.93
		c-4.873-0.831-10.227-1.418-15.96-1.752V53.959l-1.427-1.498c-6.378-0.312-12.878-0.294-19.112,0.037l-1.421,1.498v14.233
		c-5.733,0.34-11.088,0.936-15.961,1.776V56.181l-1.782-1.474c-9.205,1.761-20.178,5.116-20.178,11.097V96.36h1.5v1.963
		l-25.95-3.194l-1.684,1.489v22.306l-23.133-2.846V93.402l-1.316-1.489l-26.133-3.216l-1.684,1.489v22.306l-23.133-2.847V86.97
		l-1.316-1.488l-26.133-3.217l-1.684,1.488v22.307l-23.135-2.848V80.537l-1.317-1.489l-26.132-3.215l-1.683,1.488v22.307
		l-23.133-2.848V74.104l-1.317-1.488l-24.816-3.055v-54.75l-0.273-0.863c-4.222-5.996-18.283-9.365-26.289-10.839l-1.771,1.476
		v28.212c-6.813-1.17-14.311-1.983-22.332-2.423V1.796l-1.427-1.498c-8.495-0.416-17.153-0.394-25.487,0.05l-1.42,1.498v28.585
		c-8.056,0.476-15.552,1.328-22.332,2.541V4.772L52.344,3.3c-9.916,1.902-26.551,6.299-26.551,14.367l0.001,330.703
		c0,40.729-7.013,71.886-12.896,90.851C6.523,459.771,0.064,470.831,0,470.94l1.292,2.263h505.666l1.388-2.069
		C508.117,470.576,485.458,414.749,485.458,359.7z"/>
	<g>
		<path fill-rule="evenodd" clip-rule="evenodd" d="M95.115,260.079c9.016,4.278,18.604,5.508,28.487,4.889
			c9.507-0.591,18.075-3.797,25.777-9.335c7.729-5.56,13.546-12.835,18.498-20.863c0.964-1.562,0.962-1.562-0.621-2.818
			c-5.953,5.736-11.935,11.465-20.091,14.399c0-26.844,0-53.524,0-80.282c3.57-0.465,6.888-1.54,9.949-3.343
			c3.077-1.813,5.817-4.03,8.123-6.797c-0.135-0.2-0.231-0.37-0.354-0.525c-0.114-0.153-0.249-0.289-0.387-0.446
			c-5.818,2.52-10.994,1.255-15.671-2.613c-1.971-1.628-3.764-3.466-5.756-5.317c-13.726,8.916-28.365,16.722-43.244,24.251
			c0.528,1.153,1.007,2.201,1.495,3.267c3.18-1.579,6.227-3.094,9.385-4.662c0.026,0.467,0.049,0.699,0.049,0.934
			c0.002,18.452,0.053,36.904-0.036,55.354c-0.022,4.251-0.271,8.564-3.217,12.065c0.578,0.875,1.265,0.98,2.169,0.591
			c2.094-0.909,4.253-1.675,6.325-2.635c6.261-2.897,10.484-7.542,11.677-14.475c0.531-3.096,0.811-6.271,0.83-9.411
			c0.076-17.107,0.03-34.216,0.062-51.323c0-0.445,0.278-1.119,0.616-1.271c0.341-0.155,1.024,0.07,1.371,0.358
			c3.338,2.769,7.125,4.638,11.303,5.731c0.737,0.193,1.11,0.439,1.108,1.32c-0.025,26.629-0.025,53.259-0.003,79.888
			c0.001,0.848-0.307,1.14-1.081,1.342c-8.371,2.191-16.81,2.334-25.201,0.402c-12.303-2.835-21.229-10.047-26.653-21.479
			c-3.328-7.018-4.733-14.492-5.154-22.202c-0.418-7.618,0.203-15.128,2.091-22.525c3.286-12.869,10.572-23.025,21.037-31.027
			c0.713-0.545,1.423-1.096,2.174-1.676c-0.457-0.711-0.856-1.334-1.27-1.976c-0.252,0.083-0.44,0.124-0.609,0.203
			c-9.453,4.415-17.748,10.39-24.677,18.229c-6.391,7.232-11.055,15.445-13.863,24.671c-3.513,11.536-3.813,23.238-1.145,34.959
			C72.131,241.387,80.555,253.174,95.115,260.079z"/>
		<path fill-rule="evenodd" clip-rule="evenodd" d="M407.725,389.298c-3.022,0.125-4.789-1.194-5.376-4.171
			c-0.288-1.461-0.479-2.968-0.481-4.453c-0.037-11.773,0.02-23.547-0.062-35.32c-0.012-1.826,0.452-3.094,1.78-4.402
			c2.63-2.598,3.894-5.972,4.441-9.6c0.043-0.274-0.188-0.593-0.291-0.891c-0.267,0.1-0.561,0.158-0.796,0.311
			c-0.465,0.295-0.866,0.694-1.344,0.963c-3.943,2.217-8.784,1.585-12.088-1.72c-1.804-1.806-3.411-3.812-5.185-5.812
			c-6.831,5.788-14.145,11.091-22.112,15.734c-0.141-1.196-0.237-2.205-0.382-3.21c-0.66-4.588-2.62-8.361-6.938-10.49
			c-1.613-0.795-3.357-1.348-5.085-1.873c-0.479-0.146-1.249,0.038-1.656,0.361c-5.663,4.484-11.278,9.029-16.927,13.531
			c-1.372,1.094-2.82,2.092-4.336,3.209c-0.23-1.762-0.399-3.318-0.641-4.862c-0.9-5.772-3.455-10.275-9.379-12.209
			c-0.668-0.219-1.041-0.201-1.465,0.424c-2.819,4.209-6.459,7.649-10.336,10.85c-1.604,1.323-3.271,2.57-5.25,4.118
			c0.784,0.312,1.285,0.643,1.819,0.7c4.358,0.489,6.979,2.374,7.962,5.931c0.312,1.129,0.539,2.324,0.545,3.494
			c0.04,12.363,0.037,24.729,0.007,37.096c0,0.37-0.295,0.916-0.615,1.082c-3.685,1.941-6.343,4.902-8.408,8.439
			c-0.228,0.393-0.171,0.951-0.245,1.435c0.457-0.019,0.961,0.073,1.373-0.079c3.008-1.109,6.053-1.434,9.15-0.456
			c2.382,0.75,4.337,2.217,6.181,3.851c1.562,1.381,3.124,2.757,4.547,4.014c3.89-4.309,8.052-8.912,12.257-13.568
			c-1.881-1.803-4.033-3.639-6.594-4.934c-0.588-0.297-1.013-0.574-1.011-1.385c0.029-12.76,0.016-25.521,0.045-38.281
			c0-0.396,0.249-0.937,0.562-1.165c2.811-2.04,5.658-4.028,8.502-6.021c0.253-0.176,0.544-0.363,0.831-0.4
			c2.787-0.352,6.419,1.703,7.604,4.264c1.124,2.422,1.371,5.009,1.375,7.621c0.019,11.576,0,23.15,0.027,34.727
			c0.001,0.834-0.252,1.374-0.893,1.9c-3.22,2.661-6.006,5.699-7.864,9.471c0.342,0.764,0.796,0.732,1.443,0.398
			c2.271-1.162,4.672-1.34,7.137-0.776c3.011,0.69,5.659,2.181,8.157,3.923c2.125,1.48,4.143,3.115,6.108,4.606
			c4.705-4.576,9.386-9.136,14.085-13.709c-0.003-0.013-0.02-0.106-0.07-0.149c-3.241-2.542-6.567-4.928-10.624-6.035
			c-0.579-0.157-0.924-0.36-0.922-1.102c0.025-13.035,0.018-26.074,0.038-39.11c0.001-0.341,0.155-0.844,0.405-0.999
			c2.779-1.717,5.588-3.379,8.41-5.07c0.252,0.33,0.438,0.582,0.631,0.826c2.177,2.72,4.838,4.762,8.251,5.639
			c0.949,0.243,1.217,0.639,1.215,1.604c-0.036,11.459-0.043,22.915-0.006,34.369c0.008,3.434,0.069,6.873,0.316,10.297
			c0.313,4.369,1.674,8.396,5.642,10.775c2.055,1.229,4.497,1.801,6.759,2.689c0.903,0.354,1.37-0.072,1.916-0.762
			c3.874-4.883,7.798-9.726,11.705-14.584c0.184-0.232,0.346-0.48,0.787-1.096c-1.216-0.053-2.101-0.121-2.987-0.121
			C408.824,389.136,408.278,389.275,407.725,389.298z"/>
		<path fill-rule="evenodd" clip-rule="evenodd" d="M172.436,291.76c-4.216,3.549-9.133,3.367-13.114-0.412
			c-1.518-1.438-3.16-2.743-4.748-4.111c0.119-0.249-0.144-0.078-0.404,0.094c-7.78,5.113-15.588,10.182-23.313,15.375
			c-1.879,1.261-3.664,2.769-5.165,4.454c-2.528,2.834-3.001,6.437-3.003,10.089c-0.011,22.95,0.011,45.902-0.039,68.852
			c-0.004,1.746-0.281,3.551-0.784,5.221c-0.971,3.23-3.066,4.701-6.442,4.648c-1.604-0.027-3.304-0.1-4.78-0.642
			c-3.352-1.231-6.62-2.714-9.879-4.192c-4.265-1.937-8.413-4.159-12.756-5.902c-3.981-1.598-8.218-2.034-12.381-0.547
			c-3.57,1.273-6.424,3.643-8.958,6.42c-2.937,3.215-4.97,6.963-6.716,10.998c0.419,0.216,0.751,0.387,1.109,0.572
			c0.172-0.219,0.293-0.371,0.407-0.525c3.134-4.229,6.72-5.659,11.79-4.22c4.008,1.138,7.892,2.716,11.843,4.067
			c4.4,1.505,8.804,3.01,13.548,3.003c3.789-0.008,7.421-0.921,11.031-1.927c8.974-2.504,17.148-6.504,24.071-12.868
			c4.577-4.206,7.024-9.199,6.853-15.572c-0.211-7.974-0.05-15.958-0.05-23.937c0-0.457,0-0.915,0-1.373c4.929,0,9.681,0,14.566,0
			c0,12.67,0,25.246,0,37.812c1.418,0,2.697,0,4.052,0c0-0.645,0-1.194,0-1.744c0-25.873,0.006-51.747-0.025-77.623
			c-0.001-1.033,0.308-1.537,1.266-1.91c2.794-1.079,5.231-2.746,7.386-4.812c2.802-2.693,5.144-5.743,7.032-9.24
			c-0.386-0.354-0.732-0.671-1.179-1.08C173.212,291.1,172.824,291.432,172.436,291.76z M155.022,333.25c-4.76,0-9.507,0-14.395,0
			c-0.022-0.434-0.069-0.887-0.069-1.339c-0.003-9.55,0.027-19.101-0.033-28.651c-0.008-1.294,0.364-2.095,1.558-2.52
			c6.039,4.768,6.039,4.768,12.939,6.527C155.022,315.879,155.022,324.508,155.022,333.25z"/>
		<path fill-rule="evenodd" clip-rule="evenodd" d="M182.605,221.516c-8.208,6.902-12.717,15.35-10.906,26.398
			c0.831,5.064,3.088,9.301,7.15,12.536c4.626,3.683,9.983,5.249,15.787,5.551c0.408,0.021,0.922-0.182,1.236-0.454
			c1.489-1.295,2.924-2.652,4.381-3.983c3.109-2.849,6.223-5.694,9.498-8.689c0.323,1.081,0.555,1.993,0.865,2.878
			c1.523,4.332,4.055,7.773,8.615,9.236c1.564,0.502,3.23,0.675,4.846,1.017c0.714,0.149,1.104-0.124,1.526-0.728
			c3.154-4.533,6.366-9.025,9.54-13.545c0.189-0.273,0.217-0.665,0.32-1.002c-0.347-0.01-0.721-0.109-1.035-0.018
			c-3.424,1.002-6.879-0.715-7.703-4.169c-0.574-2.392-0.881-4.904-0.9-7.364c-0.086-12.324-0.031-24.646-0.058-36.971
			c-0.002-0.782,0.235-1.209,0.933-1.559c2.261-1.141,4.134-2.761,5.489-4.912c0.813-1.293,1.391-2.692,1.367-4.367
			c-0.322,0.096-0.509,0.141-0.688,0.21c-5.891,2.271-9.689,1.187-13.396-3.875c-0.774-1.06-1.433-2.203-2.179-3.363
			c-0.324,0.451-0.592,0.838-0.875,1.217c-2.409,3.245-4.975,6.339-8.435,8.547c-5.212,3.327-10.488,2.377-13.922-2.698
			c-1.458-2.155-2.528-4.572-3.805-6.925c-5.581,5.578-12.093,10.132-19.565,13.493c5.808,6.526,11.511,12.936,17.233,19.364
			C186.074,218.791,184.292,220.098,182.605,221.516z M181.289,202.951c7.764,3.57,14.994,2.635,21.517-2.203
			c2.071,1.234,4.003,2.344,5.882,3.539c0.297,0.189,0.492,0.758,0.499,1.156c0.046,2.37,0.022,4.741,0.022,7.111
			c0,12.129,0,24.259,0,36.389c0,0.467,0,0.936,0,1.38c-7.107,1.587-14.322,0.421-19.171-6.262
			c-4.842-6.677-4.883-16.52-0.104-23.231c0.112-0.159,0.236-0.306,0.445-0.572c3.739,4.134,7.438,8.225,11.205,12.393
			c1.181-0.928,2.316-1.82,3.586-2.82C197.19,220.85,189.242,211.899,181.289,202.951z"/>
		<path fill-rule="evenodd" clip-rule="evenodd" d="M239.997,390.586c-3.276,0.991-6.755-0.695-7.603-4.001
			c-0.572-2.229-0.914-4.583-0.929-6.884c-0.089-12.561-0.038-25.123-0.055-37.684c0-0.712,0.225-1.08,0.837-1.492
			c1.495-1.003,3.009-2.043,4.284-3.3c1.622-1.601,2.545-3.632,2.695-6.023c-8.376,3.271-12.245,0.337-16.289-7.013
			c-0.391,0.535-0.754,1.043-1.132,1.541c-2.617,3.439-5.362,6.753-9.258,8.843c-3.092,1.66-7.367,2.211-10.892-1.011
			c-1.833-1.675-3.16-3.723-4.173-5.973c-0.496-1.104-0.939-2.233-1.436-3.427c-5.766,5.77-12.275,10.329-19.724,13.7
			c5.801,6.517,11.49,12.91,17.201,19.323c-2.002,1.588-4,3.06-5.867,4.681c-7.531,6.538-11.812,14.472-10.524,24.775
			c0.669,5.34,2.782,9.904,6.986,13.396c4.72,3.92,10.266,5.55,16.282,5.844c0.364,0.018,0.817-0.229,1.107-0.49
			c1.825-1.629,3.617-3.299,5.422-4.949c2.766-2.526,5.529-5.049,8.464-7.727c0.252,0.904,0.425,1.588,0.635,2.256
			c0.992,3.143,2.484,5.969,5.177,8.006c2.651,2.015,5.763,2.652,8.981,2.893c0.28,0.021,0.686-0.304,0.876-0.578
			c3.231-4.525,6.442-9.066,9.634-13.619c0.214-0.303,0.241-0.738,0.354-1.113C240.699,390.566,240.321,390.49,239.997,390.586z
			 M214.827,360.951c0,9.281,0,18.566,0,27.852c0,0.468,0,0.939,0,1.386c-6.991,1.567-14.002,0.435-18.812-5.776
			c-5.124-6.614-5.358-16.792-0.54-23.613c0.135-0.191,0.286-0.371,0.524-0.676c3.734,4.134,7.429,8.222,11.202,12.398
			c1.146-0.906,2.284-1.805,3.579-2.828c-8.019-9.025-15.985-17.996-23.956-26.965c7.784,3.701,15.021,2.699,21.568-2.1
			c2.097,1.236,4.035,2.338,5.916,3.525c0.296,0.186,0.494,0.758,0.497,1.15C214.834,350.519,214.827,355.734,214.827,360.951z"/>
		<path fill-rule="evenodd" clip-rule="evenodd" d="M299.952,185.122c-0.882,1.502-2.168,2.589-3.793,3.253
			c-3.347,1.372-6.745,1.395-9.988-0.129c-2.148-1.011-4.085-2.466-5.911-3.595c-2.245,1.736-4.392,3.858-6.932,5.278
			c-7.207,4.032-15.061,4.531-23.086,3.508c-1.583-0.201-3.143-0.57-4.625-0.846c0.582,1.627,1.31,3.176,1.663,4.804
			c0.364,1.681,0.48,3.442,0.5,5.169c0.069,6.318,0.122,12.639,0.034,18.955c-0.034,2.39-0.339,4.801-0.779,7.151
			c-0.287,1.55-1.038,3.012-1.62,4.616c4.267,0,8.514,0,13.112,0c-1.521,1.668-2.797,3.051-4.059,4.451
			c-5.427,6.035-10.43,12.379-13.916,19.771c-1.012,2.142-1.754,4.414-2.646,6.699c1.306,0.353,2.32,0.626,3.384,0.914
			c0.195-0.451,0.367-0.843,0.545-1.233c0.954-2.098,2.339-3.841,4.312-5.053c5.319-3.264,12.423-2.236,16.872,2.486
			c1.334,1.418,2.495,2.996,3.864,4.654c0.19-0.262,0.355-0.535,0.563-0.766c2.316-2.573,4.932-4.783,8.081-6.27
			c4.726-2.228,9.775-2.911,14.933-3.123c3.896-0.16,7.72,0.035,11.332,1.709c0.041,0.018,0.13-0.06,0.263-0.121
			c-1.633-2.801-2.294-5.898-2.331-9.066c-0.095-8.088-0.075-16.18-0.004-24.268c0.022-2.703,0.597-5.328,2.175-7.631
			c0.073-0.111,0.081-0.267,0.175-0.576c-6.606,0-13.083,0-19.373,0c3.91-4.846,7.92-9.606,11.688-14.553
			c3.785-4.964,6.884-10.365,9.357-16.205c-0.773-0.212-1.517-0.341-2.195-0.624C300.747,184.153,300.358,184.427,299.952,185.122z
			 M282.934,225.731c0,0.53,0,0.952,0,1.372c0,7.781-0.017,15.562,0.025,23.343c0.005,0.962-0.306,1.277-1.2,1.618
			c-2.159,0.818-3.706,0.367-5.425-1.238c-1.932-1.808-4.181-3.428-6.558-4.582c-4.271-2.07-8.745-1.666-13.102-0.015
			c-1.745,0.663-3.418,1.517-5.123,2.282c-0.042-0.043-0.088-0.086-0.134-0.13c2.104-2.592,4.078-5.304,6.339-7.749
			c4.477-4.833,9.106-9.522,13.686-14.259c0.262-0.268,0.627-0.61,0.946-0.614C275.856,225.716,279.321,225.731,282.934,225.731z
			 M279.202,213.03c-3.227,3.3-6.519,6.538-9.83,9.757c-0.397,0.387-1.068,0.615-1.641,0.678c-1.004,0.107-2.03,0.029-3.121,0.029
			c-0.029-0.504-0.068-0.885-0.068-1.268c-0.005-7.938,0.019-15.875-0.029-23.812c-0.006-0.99,0.348-1.265,1.223-1.585
			c2.444-0.884,4.243-0.489,6.405,1.249c5.902,4.741,11.412,4.133,17.646,0.453c0.564-0.332,1.095-0.719,1.641-1.08
			C287.959,203.195,283.821,208.309,279.202,213.03z"/>
		<path fill-rule="evenodd" clip-rule="evenodd" d="M446.391,249.252c-0.704,0.744-1.252,0.895-2.207,0.439
			c-4.103-1.955-8.396-3.404-12.854-4.299c-2.192-0.438-4.411-0.722-6.677-1.086c-0.017-0.335-0.046-0.684-0.046-1.031
			c-0.005-4.15,0.016-8.298-0.021-12.447c-0.008-0.764,0.224-1.217,0.874-1.625c6.251-3.916,12.453-7.912,18.73-11.789
			c3.516-2.173,7.149-4.162,10.855-6.309c-5.812-8.523-10.909-17.292-14.646-26.873c-0.521,0.282-0.9,0.485-1.276,0.691
			c-6.617,3.62-13.402,6.854-20.69,8.92c-3.009,0.854-6.053,1.438-9.206,1.211c-1.573-0.113-3.153-0.171-4.935-0.264
			c1.84,2.141,2.939,4.392,3.208,6.969c0.235,2.273,0.448,4.562,0.455,6.845c0.045,13.036,0.013,26.073,0.036,39.108
			c0.003,0.807-0.233,1.295-0.925,1.725c-2.786,1.725-5.074,4.003-7.063,6.59c-0.198,0.263-0.218,0.666-0.32,1.005
			c0.353,0.067,0.715,0.229,1.055,0.188c1.487-0.18,2.959-0.508,4.448-0.616c6.372-0.453,12.523,0.782,18.431,2.995
			c4.781,1.79,9.396,4.021,14.091,6.06c4.767-5.794,9.725-11.819,14.746-17.915c-0.74-0.66-1.598-1.431-2.267-2.029
			C448.808,246.984,447.524,248.048,446.391,249.252z M425.942,196.71c0.562-0.16,1.079-0.458,1.616-0.692
			c3.627,6.49,7.182,12.852,10.767,19.266c-4.487,2.83-9.031,5.695-13.72,8.653c0-0.517,0-0.933,0-1.347
			c0-7.938,0.023-15.874-0.031-23.809C424.57,197.662,424.863,197.02,425.942,196.71z"/>
		<path fill-rule="evenodd" clip-rule="evenodd" d="M322.496,199.314c1.553-0.104,1.563-0.021,1.563,1.51
			c0,15.208-0.019,30.414,0.028,45.623c0.003,1.221-0.384,1.903-1.4,2.535c-3.13,1.947-5.924,4.309-8.524,7.516
			c0.749,0.126,1.261,0.335,1.737,0.274c5.018-0.645,9.908-0.205,14.325,2.37c3.391,1.977,6.556,4.346,9.313,6.203
			c5.227-5.025,10.564-10.162,15.957-15.35c-0.682-0.643-1.477-1.391-2.464-2.319c-0.728,0.904-1.419,1.761-2.084,2.586
			c-0.433-0.237-0.633-0.354-0.84-0.464c-2.895-1.502-5.765-3.055-8.698-4.474c-0.736-0.354-0.728-0.791-0.728-1.385
			c0.004-14.497,0.004-28.993,0.006-43.49c0-0.343,0.042-0.687,0.09-1.375c4.435,0.438,8.784,0.866,12.983,1.279
			c0-4.185,0-8.562,0-13.008c-4.252,1.069-8.59,1.345-13.073,1.388c0.04-8.648,0.665-17.096,2.705-25.781
			c-6.463,5.185-12.651,10.153-21.108,10.448c0.335,0.957,0.81,1.784,0.896,2.65c0.354,3.561,0.655,7.133,0.851,10.707
			c0.125,2.179,0.027,2.185-2.129,1.973c-0.076-0.008-0.153-0.04-0.23-0.046c-2.856-0.229-5.714-0.459-8.441-0.677
			c0,3.972,0,7.97,0,12.091c0.09-0.007,0.381-0.02,0.668-0.046C316.763,199.803,319.625,199.505,322.496,199.314z"/>
		<path fill-rule="evenodd" clip-rule="evenodd" d="M366.953,257.218c3.66,1.638,6.969,3.843,10.159,6.236
			c1.095,0.82,2.15,1.687,3.124,2.452c5.462-4.502,10.812-8.91,16.223-13.371c-0.712-0.898-1.378-1.743-2.059-2.604
			c-1.026,0.689-1.936,1.299-2.699,1.81c-2.509-1.677-4.869-3.325-7.306-4.844c-0.808-0.502-1.112-0.999-1.112-1.946
			c0.045-23.264,0.038-46.521,0.086-69.784c0.014-6.601,0.614-13.152,2.096-19.604c0.33-1.443,0.666-2.885,1.009-4.373
			c-0.182,0.039-0.273,0.036-0.331,0.076c-0.539,0.396-1.07,0.807-1.618,1.195c-6.448,4.627-12.794,9.483-21.277,9.424
			c0.751,1.479,1.602,2.782,2.1,4.207c1.258,3.584,1.345,7.368,1.353,11.104c0.057,23.3,0.022,46.602,0.053,69.903
			c0,0.963-0.339,1.477-1.118,1.975c-2.804,1.787-5.411,3.82-7.695,6.721c0.529,0.155,0.965,0.441,1.312,0.359
			C361.965,255.525,364.481,256.113,366.953,257.218z"/>
		<path fill-rule="evenodd" clip-rule="evenodd" d="M295.888,333.572c-2.639,0.184-4.551-1.455-5.903-3.557
			c-1.137-1.764-1.996-3.708-3.015-5.642c-4.292,6.714-9.291,12.923-15.237,18.616c-1.012-7.941-2.799-15.244-10.98-18.897
			c-4.367,6.103-9.748,11.099-16.169,15.632c0.847,0.34,1.384,0.699,1.957,0.766c4.994,0.564,7.521,2.868,8.282,7.734
			c0.188,1.204,0.237,2.438,0.238,3.658c0.018,11.336,0.002,22.676,0.029,34.012c0.001,0.824-0.261,1.24-1.001,1.625
			c-4.052,2.113-6.911,5.434-9.146,9.337c-0.139,0.247-0.089,0.782,0.094,0.985c0.185,0.206,0.653,0.242,0.983,0.212
			c0.295-0.024,0.567-0.261,0.86-0.372c4.182-1.586,8.411-2.036,12.473,0.178c3.106,1.691,6.051,3.684,9.025,5.6
			c1.109,0.713,2.107,1.593,2.989,2.27c5.83-5.772,11.519-11.406,17.247-17.081c-0.763-0.851-1.626-1.813-2.518-2.81
			c-1.344,1.123-2.64,2.208-3.645,3.045c-3.54-1.523-6.861-2.938-10.154-4.414c-0.309-0.139-0.619-0.682-0.622-1.039
			c-0.03-11.295-0.029-22.594-0.013-33.893c0-0.36,0.092-0.838,0.326-1.063c1.91-1.819,3.862-3.595,5.778-5.363
			c1.121,0.888,2.199,1.88,3.406,2.683c5.564,3.712,12.588,2.943,16.785-1.788c3.088-3.483,3.772-7.771,4.151-12.423
			c-0.533,0.26-0.828,0.456-1.159,0.558C299.271,332.655,297.601,333.453,295.888,333.572z"/>
		<path fill-rule="evenodd" clip-rule="evenodd" d="M94.159,381.402c0.702,0.066,1.292,0.314,1.68,0.132
			c4.714-2.213,9.416-4.456,13.289-8.067c2.78-2.59,4.96-5.548,5.552-9.385c0.354-2.293,0.596-4.627,0.61-6.941
			c0.093-13.068,0.074-26.139,0.161-39.209c0.018-2.354,0.217-4.728,0.559-7.057c0.197-1.322,0.862-2.574,1.4-4.104
			c-0.589,0-1.195-0.191-1.555,0.028c-4.509,2.757-9.078,5.429-12.94,9.108c-1.961,1.867-3.89,3.783-4.509,6.521
			c-0.447,1.986-0.695,4.028-0.874,6.06c-0.138,1.559-0.027,3.142-0.027,4.873c-0.605,0-1.106-0.009-1.609,0.002
			c-3.233,0.071-6.485,0.056-9.562,1.263c-3.232,1.27-5.533,3.461-5.924,7.031c-0.227,2.088-0.224,4.272,0.137,6.332
			c0.598,3.439,2.379,6.074,6.261,6.84c0.092-0.526,0.147-0.951,0.242-1.37c0.336-1.453,0.789-2.833,2.348-3.46
			c2.606-1.047,5.315-0.762,8.107-0.729c0,0.555,0,0.981,0,1.408c0,6.082,0.021,12.164-0.009,18.246
			C97.477,373.266,97.02,377.51,94.159,381.402z"/>
		<path fill-rule="evenodd" clip-rule="evenodd" d="M132.145,288.521c-0.371-0.284-0.707-0.544-1.069-0.821
			c-0.825,0.631-1.539,1.191-2.264,1.73c-2.938,2.18-6.338,2.104-9.671,1.678c-5-0.639-9.971-1.523-14.941-2.393
			c-4.802-0.839-9.605-1.423-14.475-0.762c-10.53,1.43-16.55,9.532-19.359,18.26c0.597,0.321,1.117,0.652,1.684-0.158
			c3.007-4.295,7.192-5.484,12.17-4.543c4.647,0.878,9.289,1.795,13.951,2.598c3.973,0.684,7.979,1.021,12.012,0.504
			c5.659-0.724,10.335-3.443,14.497-7.188C127.569,294.826,130.073,291.906,132.145,288.521z"/>
	</g>
</g>
</svg>