<?xml version="1.0" encoding="utf-8"?>
<!-- Generator: Adobe Illustrator 16.0.0, SVG Export Plug-In . SVG Version: 6.00 Build 0)  -->
<!DOCTYPE svg PUBLIC "-//W3C//DTD SVG 1.1//EN" "http://www.w3.org/Graphics/SVG/1.1/DTD/svg11.dtd">
<svg version="1.1" id="Layer_1" xmlns="http://www.w3.org/2000/svg" xmlns:xlink="http://www.w3.org/1999/xlink" x="0px" y="0px"
	 width="540.128px" height="86.588px" viewBox="0 0 540.128 86.588" enable-background="new 0 0 540.128 86.588"
	 xml:space="preserve">
<g>
	<path fill="#009ABA" stroke="#009ABA" stroke-miterlimit="10" d="M72.382,61.419C68.12,65.525,63.839,69.626,58,71.726
		c0-19.215,0-38.312,0-57.464c2.556-0.334,4.931-1.102,7.122-2.393c2.203-1.298,4.163-2.885,5.813-4.865
		c-0.094-0.144-0.165-0.266-0.25-0.376c-0.083-0.109-0.18-0.207-0.279-0.319c-4.163,1.804-7.871,0.898-11.217-1.871
		c-1.408-1.165-2.692-2.479-4.118-3.806C45.245,7.014,34.767,12.601,24.116,17.99c0.377,0.825,0.721,1.575,1.07,2.338
		c2.275-1.13,4.456-2.213,6.718-3.336c0.017,0.333,0.034,0.501,0.034,0.668c0.001,13.207,0.037,26.414-0.026,39.621
		c-0.015,3.042-0.193,6.13-2.302,8.636c0.414,0.628,0.906,0.702,1.551,0.423c1.5-0.65,3.046-1.199,4.529-1.886
		c4.482-2.073,7.505-5.397,8.358-10.36c0.38-2.216,0.583-4.488,0.593-6.736c0.056-12.245,0.023-24.491,0.045-36.736
		c0.001-0.319,0.2-0.801,0.441-0.91c0.245-0.111,0.735,0.05,0.982,0.256c2.39,1.982,5.101,3.319,8.09,4.103
		c0.527,0.138,0.795,0.315,0.794,0.945c-0.019,19.061-0.018,38.122-0.002,57.183c0,0.605-0.219,0.814-0.773,0.961
		c-5.992,1.566-12.031,1.67-18.038,0.287c-8.806-2.029-15.196-7.191-19.078-15.375c-2.382-5.021-3.387-10.372-3.69-15.89
		c-0.298-5.454,0.146-10.829,1.498-16.124c2.352-9.211,7.566-16.481,15.058-22.209c0.511-0.39,1.018-0.785,1.555-1.199
		c-0.327-0.509-0.613-0.955-0.908-1.415c-0.181,0.06-0.315,0.089-0.436,0.146c-6.767,3.16-12.705,7.437-17.663,13.048
		C7.94,19.604,4.602,25.482,2.591,32.085C0.077,40.344-0.138,48.72,1.773,57.109c2.52,11.064,8.549,19.5,18.97,24.443
		c6.454,3.062,13.318,3.942,20.392,3.5c6.804-0.425,12.936-2.718,18.451-6.683c5.533-3.979,9.694-9.186,13.24-14.933
		C73.516,62.318,73.515,62.317,72.382,61.419z"/>
	<path fill="#009ABA" stroke="#009ABA" stroke-miterlimit="10" d="M120.462,74.848c-2.452,0.718-4.923-0.511-5.515-2.984
		c-0.41-1.713-0.629-3.511-0.642-5.271c-0.062-8.82-0.023-17.642-0.042-26.462c-0.001-0.561,0.169-0.864,0.667-1.116
		c1.619-0.817,2.959-1.976,3.929-3.517c0.583-0.925,0.994-1.926,0.978-3.125c-0.229,0.069-0.363,0.101-0.491,0.15
		c-4.217,1.625-6.937,0.849-9.589-2.773c-0.555-0.758-1.026-1.577-1.562-2.407c-0.231,0.323-0.423,0.601-0.624,0.871
		c-1.726,2.323-3.562,4.537-6.038,6.117c-3.732,2.382-7.508,1.702-9.966-1.932c-1.042-1.542-1.809-3.271-2.724-4.956
		c-3.994,3.994-8.655,7.253-14.003,9.659c4.156,4.671,8.239,9.259,12.334,13.86c-1.326,1.037-2.601,1.974-3.809,2.987
		c-5.875,4.941-9.102,10.988-7.806,18.896c0.594,3.625,2.21,6.658,5.117,8.973c3.311,2.637,7.148,3.756,11.3,3.973
		c0.293,0.016,0.662-0.129,0.888-0.325c1.065-0.927,2.092-1.897,3.133-2.851c2.227-2.038,4.455-4.076,6.799-6.219
		c0.231,0.771,0.397,1.426,0.621,2.061c1.09,3.1,2.903,5.562,6.165,6.609c1.119,0.359,2.312,0.484,3.47,0.729
		c0.51,0.107,0.791-0.088,1.092-0.521c2.257-3.244,4.557-6.46,6.829-9.693c0.138-0.197,0.156-0.477,0.229-0.717
		C120.955,74.854,120.688,74.783,120.462,74.848z M102.41,47.536c0,8.682,0,17.364,0,26.046c0,0.334,0,0.67,0,0.988
		c-5.089,1.136-10.253,0.303-13.723-4.482c-3.466-4.779-3.495-11.824-0.075-16.629c0.08-0.113,0.169-0.219,0.319-0.41
		c2.676,2.961,5.323,5.888,8.021,8.871c0.845-0.664,1.657-1.303,2.567-2.019c-5.711-6.428-11.403-12.834-17.096-19.24
		c5.559,2.557,10.734,1.887,15.402-1.576c1.482,0.882,2.866,1.678,4.209,2.533c0.214,0.137,0.354,0.543,0.359,0.828
		C102.426,44.142,102.41,45.839,102.41,47.536z"/>
	<path fill="#009ABA" stroke="#009ABA" stroke-miterlimit="10" d="M170.076,27.889c-0.555-0.152-1.086-0.244-1.572-0.446
		c-0.574-0.237-0.852-0.042-1.144,0.456c-0.631,1.076-1.552,1.854-2.714,2.33c-2.396,0.981-4.829,0.998-7.149-0.093
		c-1.538-0.723-2.925-1.765-4.231-2.573c-1.605,1.243-3.143,2.761-4.961,3.778c-5.158,2.886-10.78,3.243-16.524,2.511
		c-1.133-0.145-2.25-0.409-3.31-0.605c0.416,1.165,0.938,2.272,1.19,3.438c0.261,1.203,0.344,2.463,0.357,3.699
		c0.05,4.522,0.089,9.046,0.024,13.568c-0.024,1.711-0.242,3.436-0.556,5.119c-0.208,1.108-0.746,2.155-1.163,3.305
		c3.057,0,6.095,0,9.387,0c-1.089,1.193-2.004,2.183-2.905,3.185c-3.885,4.319-7.466,8.86-9.962,14.151
		c-0.723,1.534-1.253,3.16-1.893,4.795c0.934,0.253,1.66,0.449,2.42,0.654c0.143-0.322,0.265-0.604,0.392-0.883
		c0.682-1.5,1.675-2.748,3.087-3.615c3.807-2.337,8.892-1.602,12.076,1.779c0.956,1.014,1.787,2.145,2.766,3.33
		c0.136-0.188,0.254-0.381,0.403-0.547c1.659-1.843,3.53-3.424,5.785-4.488c3.38-1.594,6.998-2.084,10.689-2.234
		c2.787-0.115,5.525,0.024,8.111,1.221c0.03,0.016,0.094-0.04,0.187-0.084c-1.169-2.006-1.641-4.223-1.667-6.49
		c-0.068-5.79-0.055-11.58-0.004-17.371c0.017-1.934,0.427-3.814,1.555-5.461c0.054-0.08,0.062-0.19,0.128-0.412
		c-4.729,0-9.364,0-13.868,0c2.798-3.469,5.669-6.877,8.368-10.417C166.086,35.936,168.304,32.069,170.076,27.889z M155.181,56.967
		c0,0.38,0,0.681,0,0.982c0,5.569-0.013,11.139,0.017,16.708c0.003,0.688-0.218,0.914-0.858,1.156
		c-1.545,0.588-2.653,0.265-3.882-0.885c-1.385-1.293-2.994-2.453-4.695-3.279c-3.056-1.482-6.259-1.193-9.377-0.01
		c-1.249,0.473-2.445,1.084-3.666,1.633c-0.033-0.031-0.065-0.062-0.097-0.094c1.505-1.854,2.918-3.795,4.538-5.545
		c3.203-3.461,6.518-6.816,9.795-10.207c0.186-0.191,0.448-0.438,0.677-0.439C150.112,56.956,152.593,56.967,155.181,56.967z
		 M152.51,47.875c-2.31,2.362-4.668,4.681-7.037,6.983c-0.286,0.277-0.767,0.441-1.175,0.486c-0.719,0.077-1.454,0.021-2.235,0.021
		c-0.02-0.36-0.048-0.635-0.049-0.908c-0.002-5.682,0.014-11.363-0.021-17.043c-0.005-0.71,0.249-0.907,0.877-1.135
		c1.747-0.633,3.034-0.351,4.583,0.894c4.225,3.394,8.168,2.958,12.63,0.324c0.403-0.238,0.783-0.515,1.174-0.773
		C158.778,40.836,155.815,44.497,152.51,47.875z"/>
	<path fill="#009ABA" stroke="#009ABA" stroke-miterlimit="10" d="M257.198,59.453c4.474-2.805,8.914-5.664,13.405-8.439
		c2.52-1.555,5.117-2.979,7.771-4.516c-4.158-6.099-7.809-12.376-10.482-19.234c-0.374,0.202-0.645,0.347-0.913,0.494
		c-4.738,2.591-9.594,4.907-14.811,6.386c-2.153,0.61-4.332,1.028-6.59,0.866c-1.126-0.081-2.255-0.122-3.533-0.189
		c1.317,1.533,2.107,3.145,2.297,4.989c0.168,1.627,0.321,3.265,0.326,4.898c0.03,9.331,0.01,18.663,0.026,27.995
		c0.001,0.576-0.168,0.926-0.664,1.232c-1.994,1.234-3.631,2.865-5.053,4.717c-0.144,0.188-0.157,0.477-0.231,0.719
		c0.252,0.049,0.513,0.164,0.756,0.136c1.063-0.128,2.117-0.364,3.183-0.44c4.562-0.325,8.964,0.561,13.193,2.143
		c3.421,1.281,6.724,2.879,10.083,4.338c3.414-4.146,6.963-8.459,10.555-12.822c-0.527-0.473-1.143-1.025-1.621-1.453
		c-0.988,0.909-1.904,1.67-2.717,2.531c-0.504,0.533-0.896,0.641-1.58,0.314c-2.938-1.398-6.009-2.436-9.201-3.076
		c-1.568-0.314-3.158-0.518-4.78-0.777c-0.011-0.24-0.031-0.49-0.032-0.74c-0.002-2.969,0.013-5.938-0.014-8.907
		C256.566,60.068,256.732,59.746,257.198,59.453z M256.563,37.677c-0.005-0.802,0.206-1.261,0.979-1.482
		c0.4-0.115,0.772-0.328,1.154-0.495c2.597,4.646,5.142,9.198,7.708,13.789c-3.212,2.027-6.465,4.078-9.821,6.194
		c0-0.369,0-0.667,0-0.964C256.584,49.038,256.603,43.357,256.563,37.677z"/>
	<path fill="#009ABA" stroke="#009ABA" stroke-miterlimit="10" d="M203.863,74.527c-0.308-0.17-0.453-0.255-0.602-0.332
		c-2.071-1.076-4.125-2.187-6.227-3.201c-0.526-0.254-0.519-0.567-0.519-0.993c0.001-10.377,0.001-20.753,0.003-31.129
		c0-0.245,0.031-0.491,0.063-0.983c3.177,0.313,6.29,0.62,9.294,0.916c0-2.996,0-6.129,0-9.311
		c-3.043,0.766-6.149,0.962-9.356,0.994c0.028-6.191,0.476-12.238,1.937-18.453c-4.627,3.71-9.056,7.267-15.11,7.478
		c0.239,0.685,0.58,1.277,0.641,1.897c0.255,2.55,0.469,5.105,0.612,7.664c0.086,1.561,0.016,1.564-1.525,1.412
		c-0.057-0.005-0.111-0.027-0.167-0.032c-2.044-0.164-4.088-0.328-6.042-0.483c0,2.842,0,5.705,0,8.653
		c0.067-0.004,0.273-0.015,0.478-0.033c2.052-0.18,4.1-0.394,6.154-0.53c1.112-0.073,1.118-0.015,1.118,1.081
		c0,10.885-0.012,21.771,0.022,32.656c0.002,0.875-0.276,1.363-1.002,1.815c-2.241,1.394-4.24,3.085-6.101,5.38
		c0.535,0.09,0.901,0.24,1.243,0.196c3.592-0.462,7.091-0.147,10.253,1.695c2.428,1.415,4.692,3.111,6.667,4.44
		c3.74-3.598,7.561-7.273,11.42-10.986c-0.489-0.461-1.058-0.995-1.764-1.66C204.833,73.322,204.339,73.935,203.863,74.527z"/>
	<path fill="#009ABA" stroke="#009ABA" stroke-miterlimit="10" d="M233.033,75.585c-1.796-1.202-3.484-2.381-5.23-3.469
		c-0.577-0.359-0.795-0.715-0.794-1.393c0.031-16.65,0.025-33.3,0.06-49.95c0.01-4.724,0.44-9.415,1.5-14.032
		c0.237-1.033,0.477-2.064,0.723-3.13c-0.13,0.029-0.195,0.026-0.236,0.056c-0.388,0.282-0.768,0.576-1.158,0.856
		c-4.616,3.311-9.159,6.787-15.231,6.745c0.538,1.058,1.146,1.991,1.504,3.011c0.9,2.566,0.962,5.274,0.969,7.948
		c0.039,16.679,0.015,33.357,0.036,50.037c0.001,0.688-0.24,1.056-0.799,1.412c-2.007,1.279-3.875,2.735-5.508,4.811
		c0.378,0.111,0.689,0.316,0.94,0.258c1.943-0.449,3.744-0.03,5.512,0.762c2.62,1.172,4.988,2.75,7.273,4.463
		c0.782,0.587,1.539,1.207,2.235,1.756c3.909-3.223,7.738-6.379,11.611-9.572c-0.508-0.642-0.988-1.247-1.475-1.862
		C234.229,74.783,233.579,75.218,233.033,75.585z"/>
	<path fill="#009ABA" stroke="#009ABA" stroke-miterlimit="10" d="M537.044,73.814c-0.395,0.001-0.787,0.102-1.18,0.117
		c-2.164,0.09-3.43-0.855-3.85-2.986c-0.205-1.045-0.342-2.124-0.344-3.188c-0.029-8.427,0.012-16.854-0.047-25.28
		c-0.008-1.308,0.324-2.215,1.275-3.153c1.885-1.859,2.787-4.274,3.18-6.87c0.031-0.198-0.133-0.425-0.209-0.638
		c-0.191,0.072-0.4,0.113-0.57,0.222c-0.332,0.212-0.619,0.498-0.959,0.69c-2.824,1.587-6.291,1.134-8.654-1.231
		c-1.291-1.293-2.441-2.729-3.709-4.161c-4.893,4.143-10.127,7.938-15.828,11.262c-0.102-0.856-0.172-1.58-0.275-2.297
		c-0.471-3.284-1.873-5.985-4.967-7.508c-1.152-0.569-2.4-0.966-3.637-1.34c-0.344-0.105-0.895,0.027-1.188,0.258
		c-4.053,3.209-8.072,6.463-12.115,9.686c-0.982,0.783-2.02,1.497-3.104,2.296c-0.166-1.262-0.287-2.375-0.459-3.481
		c-0.645-4.131-2.471-7.354-6.713-8.739c-0.479-0.156-0.746-0.143-1.047,0.305c-2.018,3.012-4.623,5.475-7.4,7.766
		c-1.148,0.947-2.34,1.839-3.758,2.947c0.561,0.223,0.922,0.459,1.303,0.502c3.119,0.349,4.996,1.698,5.699,4.244
		c0.223,0.81,0.389,1.666,0.391,2.501c0.029,8.85,0.025,17.701,0.004,26.552c0,0.265-0.213,0.657-0.439,0.776
		c-2.639,1.389-4.541,3.506-6.018,6.039c-0.164,0.281-0.123,0.682-0.176,1.027c0.328-0.014,0.688,0.053,0.982-0.056
		c2.152-0.795,4.332-1.026,6.549-0.327c1.707,0.537,3.105,1.586,4.424,2.756c1.117,0.989,2.236,1.974,3.256,2.872
		c2.785-3.083,5.762-6.378,8.773-9.712c-1.348-1.29-2.889-2.604-4.723-3.53c-0.418-0.212-0.723-0.411-0.723-0.991
		c0.021-9.133,0.012-18.268,0.033-27.401c0-0.284,0.18-0.671,0.402-0.834c2.012-1.46,4.051-2.883,6.086-4.309
		c0.18-0.125,0.389-0.26,0.596-0.286c1.992-0.252,4.594,1.219,5.443,3.052c0.803,1.733,0.98,3.585,0.982,5.456
		c0.014,8.284,0,16.569,0.02,24.854c0.002,0.598-0.18,0.984-0.637,1.361c-2.307,1.904-4.299,4.078-5.631,6.779
		c0.244,0.547,0.568,0.523,1.033,0.286c1.625-0.833,3.346-0.96,5.107-0.556c2.156,0.492,4.053,1.56,5.84,2.806
		c1.521,1.061,2.967,2.229,4.373,3.298c3.367-3.276,6.719-6.539,10.082-9.812c-0.006-0.009-0.014-0.076-0.053-0.107
		c-2.318-1.818-4.699-3.528-7.604-4.318c-0.412-0.113-0.66-0.26-0.658-0.79c0.02-9.331,0.012-18.662,0.025-27.994
		c0-0.244,0.113-0.604,0.293-0.715c1.986-1.228,3.996-2.418,6.018-3.629c0.182,0.236,0.314,0.417,0.453,0.592
		c1.557,1.947,3.461,3.408,5.904,4.036c0.68,0.174,0.873,0.457,0.871,1.147c-0.027,8.2-0.033,16.401-0.008,24.602
		c0.008,2.457,0.053,4.919,0.229,7.368c0.225,3.129,1.197,6.012,4.037,7.713c1.471,0.881,3.221,1.291,4.84,1.926
		c0.645,0.253,0.98-0.052,1.371-0.545c2.773-3.495,5.582-6.963,8.377-10.439c0.133-0.166,0.248-0.344,0.564-0.783
		C538.31,73.862,537.677,73.812,537.044,73.814z"/>
	<path fill="#009ABA" stroke="#009ABA" stroke-miterlimit="10" d="M367.446,4.116c-3.014,2.54-6.535,2.408-9.385-0.294
		c-1.086-1.031-2.262-1.965-3.398-2.944c0.086-0.178-0.102-0.056-0.289,0.067c-5.568,3.661-11.158,7.288-16.688,11.005
		c-1.344,0.903-2.623,1.982-3.697,3.188c-1.811,2.029-2.148,4.607-2.148,7.222c-0.008,16.428,0.008,32.855-0.029,49.283
		c-0.002,1.248-0.201,2.541-0.561,3.736c-0.695,2.312-2.197,3.365-4.611,3.326c-1.146-0.018-2.365-0.07-3.422-0.459
		c-2.4-0.881-4.738-1.941-7.07-3c-3.055-1.387-6.023-2.977-9.131-4.225c-2.852-1.145-5.883-1.455-8.863-0.392
		c-2.557,0.911-4.598,2.608-6.41,4.597c-2.102,2.299-3.557,4.982-4.807,7.871c0.299,0.154,0.537,0.277,0.793,0.409
		c0.121-0.157,0.209-0.265,0.291-0.377c2.244-3.026,4.811-4.05,8.439-3.021c2.869,0.814,5.648,1.945,8.475,2.912
		c3.152,1.078,6.305,2.154,9.699,2.148c2.713-0.004,5.312-0.658,7.896-1.379c6.422-1.791,12.273-4.654,17.23-9.21
		c3.275-3.011,5.027-6.584,4.904-11.146c-0.152-5.707-0.035-11.422-0.035-17.134c0-0.327,0-0.654,0-0.983c3.527,0,6.928,0,10.426,0
		c0,9.069,0,18.071,0,27.066c1.016,0,1.93,0,2.9,0c0-0.461,0-0.854,0-1.248c0-18.521,0.004-37.041-0.018-55.561
		c-0.002-0.741,0.219-1.101,0.906-1.367c1.998-0.773,3.744-1.967,5.285-3.447c2.006-1.928,3.682-4.11,5.033-6.614
		c-0.275-0.253-0.523-0.48-0.846-0.773C368.003,3.643,367.726,3.881,367.446,4.116z M354.985,33.812c-3.408,0-6.807,0-10.303,0
		c-0.018-0.31-0.051-0.634-0.051-0.958c-0.004-6.835,0.018-13.671-0.025-20.506c-0.006-0.928,0.26-1.5,1.115-1.805
		c4.324,3.414,4.324,3.414,9.264,4.672C354.985,21.379,354.985,27.556,354.985,33.812z"/>
	<path fill="#009ABA" stroke="#009ABA" stroke-miterlimit="10" d="M415.806,74.854c-2.346,0.709-4.832-0.499-5.441-2.866
		c-0.408-1.596-0.654-3.279-0.664-4.926c-0.062-8.992-0.027-17.982-0.039-26.974c-0.002-0.509,0.16-0.773,0.6-1.067
		c1.07-0.719,2.152-1.462,3.066-2.363c1.16-1.146,1.822-2.6,1.93-4.312c-5.996,2.342-8.766,0.241-11.66-5.02
		c-0.281,0.383-0.541,0.748-0.811,1.103c-1.873,2.462-3.838,4.833-6.625,6.33c-2.215,1.188-5.275,1.583-7.799-0.724
		c-1.311-1.199-2.26-2.665-2.984-4.275c-0.357-0.79-0.672-1.598-1.027-2.453c-4.129,4.129-8.787,7.394-14.119,9.805
		c4.152,4.665,8.225,9.241,12.312,13.833c-1.432,1.136-2.863,2.189-4.199,3.35c-5.391,4.679-8.455,10.358-7.531,17.734
		c0.479,3.822,1.988,7.09,4.998,9.588c3.379,2.807,7.35,3.972,11.656,4.183c0.26,0.013,0.584-0.164,0.791-0.35
		c1.309-1.166,2.59-2.361,3.883-3.544c1.977-1.807,3.955-3.612,6.057-5.53c0.182,0.647,0.303,1.136,0.455,1.615
		c0.709,2.249,1.775,4.272,3.705,5.732c1.898,1.439,4.123,1.896,6.428,2.069c0.203,0.014,0.49-0.219,0.629-0.414
		c2.312-3.24,4.611-6.49,6.895-9.75c0.154-0.217,0.172-0.527,0.252-0.795C416.31,74.838,416.038,74.784,415.806,74.854z
		 M397.79,73.576c0,0.336,0,0.672,0,0.992c-5.002,1.122-10.021,0.311-13.465-4.134c-3.67-4.733-3.834-12.021-0.387-16.902
		c0.096-0.137,0.205-0.265,0.375-0.483c2.674,2.959,5.318,5.885,8.02,8.875c0.82-0.65,1.635-1.293,2.561-2.025
		c-5.738-6.461-11.443-12.881-17.146-19.301c5.572,2.649,10.752,1.933,15.438-1.501c1.502,0.884,2.889,1.673,4.236,2.522
		c0.211,0.134,0.352,0.542,0.354,0.825c0.023,3.733,0.016,7.464,0.016,11.198C397.79,60.285,397.79,66.93,397.79,73.576z"/>
	<path fill="#009ABA" stroke="#009ABA" stroke-miterlimit="10" d="M455.812,34.044c-1.889,0.132-3.256-1.042-4.223-2.545
		c-0.814-1.264-1.43-2.655-2.16-4.039c-3.072,4.807-6.648,9.25-10.906,13.325c-0.723-5.684-2.002-10.911-7.859-13.526
		c-3.127,4.368-6.979,7.945-11.572,11.188c0.604,0.244,0.99,0.502,1.4,0.549c3.574,0.404,5.381,2.053,5.928,5.536
		c0.135,0.861,0.17,1.746,0.172,2.619c0.012,8.115,0,16.229,0.02,24.344c0.002,0.59-0.186,0.889-0.717,1.164
		c-2.9,1.513-4.945,3.89-6.545,6.684c-0.102,0.176-0.064,0.561,0.066,0.705c0.133,0.147,0.465,0.173,0.703,0.152
		c0.211-0.02,0.406-0.188,0.617-0.268c2.992-1.136,6.02-1.457,8.928,0.128c2.221,1.212,4.328,2.636,6.459,4.008
		c0.793,0.511,1.508,1.14,2.141,1.625c4.172-4.132,8.242-8.165,12.344-12.227c-0.547-0.61-1.164-1.3-1.803-2.011
		c-0.961,0.805-1.889,1.578-2.607,2.18c-2.533-1.092-4.912-2.103-7.27-3.16c-0.221-0.099-0.443-0.488-0.443-0.744
		c-0.023-8.086-0.021-16.173-0.01-24.26c0-0.258,0.064-0.599,0.234-0.761c1.365-1.303,2.764-2.573,4.135-3.839
		c0.801,0.636,1.574,1.346,2.438,1.921c3.982,2.656,9.014,2.106,12.016-1.281c2.209-2.493,2.701-5.562,2.971-8.891
		c-0.381,0.186-0.594,0.327-0.828,0.399C458.233,33.387,457.04,33.958,455.812,34.044z"/>
	<path fill="#009ABA" stroke="#009ABA" stroke-miterlimit="10" d="M313.808,59.349c-0.014,3.105-0.34,6.145-2.389,8.931
		c0.502,0.048,0.926,0.225,1.203,0.094c3.373-1.585,6.738-3.189,9.512-5.774c1.988-1.854,3.551-3.972,3.975-6.718
		c0.254-1.641,0.424-3.31,0.436-4.968c0.066-9.355,0.055-18.71,0.115-28.064c0.012-1.687,0.156-3.384,0.402-5.052
		c0.141-0.946,0.613-1.842,1-2.938c-0.422,0-0.855-0.136-1.111,0.021c-3.227,1.974-6.5,3.886-9.264,6.52
		c-1.402,1.336-2.785,2.708-3.227,4.668c-0.32,1.421-0.498,2.883-0.627,4.337c-0.098,1.116-0.02,2.249-0.02,3.488
		c-0.434,0-0.793-0.007-1.15,0.001c-2.314,0.052-4.643,0.04-6.846,0.904c-2.312,0.909-3.959,2.477-4.238,5.032
		c-0.164,1.494-0.162,3.059,0.096,4.534c0.428,2.461,1.703,4.346,4.482,4.896c0.066-0.378,0.105-0.683,0.174-0.981
		c0.24-1.04,0.566-2.028,1.68-2.476c1.865-0.751,3.805-0.545,5.803-0.521c0,0.396,0,0.702,0,1.008
		C313.813,50.642,313.829,54.997,313.808,59.349z"/>
	<path fill="#009ABA" stroke="#009ABA" stroke-miterlimit="10" d="M295.595,14.347c2.15-3.074,5.148-3.925,8.709-3.252
		c3.328,0.629,6.65,1.286,9.986,1.86c2.844,0.49,5.713,0.73,8.6,0.361c4.049-0.518,7.396-2.465,10.375-5.145
		c2.068-1.86,3.861-3.951,5.346-6.374c-0.268-0.204-0.508-0.39-0.766-0.588c-0.592,0.452-1.102,0.853-1.621,1.238
		c-2.104,1.561-4.537,1.506-6.922,1.201c-3.58-0.458-7.139-1.09-10.695-1.712c-3.436-0.601-6.875-1.018-10.361-0.544
		c-7.535,1.022-11.844,6.822-13.855,13.068C294.815,14.69,295.188,14.928,295.595,14.347z"/>
</g>
</svg>
