<?xml version="1.0" encoding="utf-8"?>
<!-- Generator: Adobe Illustrator 16.0.0, SVG Export Plug-In . SVG Version: 6.00 Build 0)  -->
<!DOCTYPE svg PUBLIC "-//W3C//DTD SVG 1.1//EN" "http://www.w3.org/Graphics/SVG/1.1/DTD/svg11.dtd">
<svg version="1.1" id="Layer_1" xmlns="http://www.w3.org/2000/svg" xmlns:xlink="http://www.w3.org/1999/xlink" x="0px" y="0px"
	 width="547.553px" height="408.409px" viewBox="0 0 547.553 408.409" enable-background="new 0 0 547.553 408.409"
	 xml:space="preserve">
<g>
	<g>
		<path fill="#808184" d="M75.682,222.924c-4.262,4.106-8.542,8.207-14.382,10.306c0-19.214,0-38.311,0-57.463
			c2.556-0.334,4.931-1.102,7.122-2.393c2.203-1.298,4.163-2.885,5.813-4.865c-0.094-0.144-0.165-0.266-0.25-0.376
			c-0.083-0.109-0.18-0.207-0.279-0.319c-4.163,1.804-7.871,0.898-11.217-1.871c-1.408-1.165-2.692-2.479-4.118-3.806
			c-9.825,6.382-20.304,11.969-30.954,17.358c0.377,0.825,0.721,1.575,1.07,2.338c2.275-1.13,4.456-2.213,6.718-3.336
			c0.017,0.333,0.034,0.501,0.034,0.668c0.001,13.207,0.037,26.414-0.026,39.621c-0.015,3.042-0.193,6.129-2.302,8.635
			c0.414,0.627,0.906,0.702,1.551,0.422c1.5-0.649,3.046-1.199,4.529-1.885c4.482-2.074,7.505-5.398,8.358-10.361
			c0.38-2.215,0.583-4.488,0.593-6.736c0.056-12.245,0.023-24.49,0.045-36.735c0.001-0.319,0.2-0.801,0.441-0.91
			c0.245-0.111,0.735,0.05,0.982,0.256c2.39,1.982,5.101,3.319,8.09,4.103c0.527,0.138,0.795,0.315,0.794,0.945
			c-0.019,19.061-0.018,38.122-0.002,57.183c0,0.606-0.219,0.815-0.773,0.96c-5.992,1.567-12.031,1.671-18.038,0.287
			c-8.806-2.028-15.196-7.191-19.078-15.374c-2.382-5.021-3.387-10.373-3.69-15.891c-0.298-5.454,0.146-10.829,1.498-16.124
			c2.352-9.211,7.566-16.481,15.058-22.209c0.511-0.39,1.018-0.785,1.555-1.199c-0.327-0.509-0.613-0.955-0.908-1.415
			c-0.181,0.06-0.315,0.089-0.436,0.146c-6.767,3.16-12.705,7.437-17.663,13.048c-4.574,5.177-7.913,11.055-9.924,17.658
			c-2.514,8.258-2.729,16.634-0.818,25.024c2.52,11.063,8.549,19.5,18.97,24.443c6.454,3.062,13.318,3.942,20.392,3.5
			c6.804-0.425,12.936-2.718,18.451-6.683c5.533-3.979,9.694-9.186,13.24-14.933C76.816,223.823,76.814,223.822,75.682,222.924z"/>
		<path fill="#808184" d="M123.762,236.353c-2.452,0.718-4.923-0.511-5.515-2.984c-0.41-1.713-0.629-3.51-0.642-5.271
			c-0.062-8.82-0.023-17.641-0.042-26.462c-0.001-0.561,0.169-0.864,0.667-1.116c1.619-0.817,2.959-1.976,3.929-3.517
			c0.583-0.925,0.994-1.926,0.978-3.125c-0.229,0.069-0.363,0.101-0.491,0.15c-4.217,1.625-6.937,0.849-9.589-2.773
			c-0.555-0.758-1.026-1.577-1.562-2.407c-0.231,0.323-0.423,0.601-0.624,0.871c-1.726,2.323-3.562,4.537-6.038,6.117
			c-3.732,2.382-7.508,1.702-9.966-1.932c-1.042-1.542-1.809-3.271-2.724-4.956c-3.994,3.994-8.655,7.253-14.003,9.659
			c4.156,4.671,8.239,9.259,12.334,13.86c-1.326,1.037-2.601,1.973-3.809,2.988c-5.875,4.941-9.102,10.988-7.806,18.896
			c0.594,3.624,2.21,6.657,5.117,8.972c3.311,2.637,7.148,3.757,11.3,3.974c0.293,0.016,0.662-0.13,0.888-0.326
			c1.065-0.926,2.092-1.897,3.133-2.851c2.227-2.038,4.455-4.075,6.799-6.219c0.231,0.772,0.397,1.426,0.621,2.061
			c1.09,3.101,2.903,5.562,6.165,6.61c1.119,0.359,2.312,0.484,3.47,0.728c0.51,0.108,0.791-0.088,1.092-0.521
			c2.257-3.244,4.557-6.46,6.829-9.694c0.138-0.196,0.156-0.477,0.229-0.717C124.255,236.359,123.988,236.287,123.762,236.353z
			 M105.71,209.041c0,8.682,0,17.364,0,26.045c0,0.335,0,0.67,0,0.988c-5.089,1.136-10.253,0.303-13.723-4.481
			c-3.466-4.779-3.495-11.825-0.075-16.63c0.08-0.112,0.169-0.218,0.319-0.409c2.676,2.96,5.323,5.887,8.021,8.871
			c0.845-0.664,1.657-1.302,2.567-2.019c-5.711-6.428-11.403-12.834-17.096-19.24c5.559,2.557,10.734,1.887,15.402-1.576
			c1.482,0.882,2.866,1.678,4.209,2.533c0.214,0.137,0.354,0.543,0.359,0.828C105.726,205.647,105.71,207.344,105.71,209.041z"/>
		<path fill="#808184" d="M173.375,189.394c-0.555-0.152-1.086-0.244-1.572-0.446c-0.574-0.237-0.852-0.042-1.144,0.456
			c-0.631,1.076-1.552,1.854-2.714,2.33c-2.396,0.981-4.829,0.998-7.149-0.093c-1.538-0.723-2.925-1.765-4.231-2.573
			c-1.605,1.243-3.143,2.761-4.961,3.778c-5.158,2.886-10.78,3.243-16.524,2.511c-1.133-0.145-2.25-0.409-3.31-0.605
			c0.416,1.165,0.938,2.272,1.19,3.438c0.261,1.203,0.344,2.463,0.357,3.699c0.05,4.522,0.089,9.046,0.024,13.568
			c-0.024,1.71-0.242,3.436-0.556,5.12c-0.208,1.108-0.746,2.155-1.163,3.304c3.057,0,6.095,0,9.387,0
			c-1.089,1.194-2.004,2.183-2.905,3.185c-3.885,4.32-7.466,8.861-9.962,14.151c-0.723,1.535-1.253,3.16-1.893,4.796
			c0.934,0.252,1.66,0.448,2.42,0.654c0.143-0.323,0.265-0.604,0.392-0.883c0.682-1.5,1.675-2.749,3.087-3.616
			c3.807-2.336,8.892-1.601,12.076,1.78c0.956,1.014,1.787,2.144,2.766,3.33c0.136-0.187,0.254-0.381,0.403-0.547
			c1.659-1.842,3.53-3.424,5.785-4.487c3.38-1.594,6.998-2.084,10.689-2.235c2.787-0.114,5.525,0.025,8.111,1.222
			c0.03,0.015,0.094-0.041,0.187-0.085c-1.169-2.005-1.641-4.222-1.667-6.49c-0.068-5.79-0.055-11.581-0.004-17.371
			c0.017-1.934,0.427-3.814,1.555-5.462c0.054-0.079,0.062-0.19,0.128-0.412c-4.729,0-9.364,0-13.868,0
			c2.798-3.469,5.669-6.877,8.368-10.417C169.386,197.44,171.604,193.574,173.375,189.394z M158.481,218.472
			c0,0.379,0,0.681,0,0.982c0,5.569-0.013,11.139,0.017,16.708c0.003,0.688-0.218,0.914-0.858,1.157
			c-1.545,0.587-2.653,0.264-3.882-0.885c-1.385-1.294-2.994-2.454-4.695-3.28c-3.056-1.482-6.259-1.193-9.377-0.01
			c-1.249,0.474-2.445,1.085-3.666,1.634c-0.033-0.031-0.065-0.062-0.097-0.094c1.505-1.855,2.918-3.796,4.538-5.546
			c3.203-3.46,6.518-6.816,9.795-10.207c0.186-0.191,0.448-0.437,0.677-0.439C153.412,218.46,155.893,218.472,158.481,218.472z
			 M155.81,209.38c-2.31,2.362-4.668,4.68-7.037,6.984c-0.286,0.277-0.767,0.441-1.175,0.485c-0.719,0.078-1.454,0.021-2.235,0.021
			c-0.02-0.36-0.048-0.634-0.049-0.908c-0.002-5.681,0.014-11.362-0.021-17.043c-0.005-0.71,0.249-0.907,0.877-1.135
			c1.747-0.633,3.034-0.351,4.583,0.894c4.225,3.394,8.168,2.958,12.63,0.324c0.403-0.238,0.783-0.515,1.174-0.773
			C162.078,202.341,159.115,206.001,155.81,209.38z"/>
		<path fill="#808184" d="M260.498,220.958c4.474-2.805,8.914-5.665,13.406-8.439c2.518-1.555,5.117-2.979,7.771-4.516
			c-4.159-6.1-7.809-12.376-10.483-19.234c-0.374,0.202-0.645,0.347-0.913,0.494c-4.738,2.591-9.594,4.907-14.811,6.386
			c-2.153,0.61-4.332,1.028-6.59,0.866c-1.126-0.081-2.255-0.122-3.533-0.189c1.317,1.533,2.107,3.145,2.297,4.989
			c0.168,1.627,0.321,3.265,0.326,4.898c0.03,9.332,0.01,18.663,0.026,27.995c0.001,0.576-0.168,0.926-0.664,1.233
			c-1.994,1.234-3.631,2.865-5.053,4.716c-0.144,0.188-0.157,0.477-0.231,0.719c0.252,0.049,0.513,0.164,0.756,0.135
			c1.063-0.127,2.117-0.364,3.183-0.44c4.562-0.326,8.964,0.56,13.193,2.143c3.421,1.281,6.724,2.878,10.083,4.337
			c3.414-4.147,6.963-8.459,10.555-12.823c-0.527-0.473-1.143-1.024-1.621-1.453c-0.988,0.91-1.905,1.671-2.717,2.531
			c-0.504,0.534-0.896,0.641-1.58,0.315c-2.938-1.399-6.009-2.436-9.201-3.076c-1.568-0.315-3.158-0.518-4.78-0.778
			c-0.011-0.24-0.031-0.49-0.032-0.74c-0.002-2.969,0.013-5.938-0.014-8.908C259.866,221.573,260.032,221.25,260.498,220.958z
			 M259.863,199.182c-0.005-0.802,0.206-1.261,0.979-1.482c0.4-0.115,0.772-0.328,1.154-0.495c2.597,4.646,5.142,9.198,7.708,13.789
			c-3.212,2.026-6.465,4.077-9.821,6.194c0-0.369,0-0.667,0-0.964C259.884,210.542,259.902,204.862,259.863,199.182z"/>
		<path fill="#808184" d="M207.163,236.031c-0.308-0.17-0.453-0.254-0.602-0.331c-2.071-1.076-4.125-2.187-6.227-3.202
			c-0.526-0.254-0.519-0.567-0.519-0.993c0.001-10.377,0.001-20.753,0.003-31.129c0-0.245,0.031-0.491,0.063-0.983
			c3.177,0.313,6.29,0.62,9.294,0.916c0-2.996,0-6.129,0-9.311c-3.043,0.766-6.149,0.962-9.356,0.994
			c0.028-6.191,0.476-12.238,1.937-18.453c-4.627,3.71-9.056,7.267-15.11,7.478c0.239,0.685,0.58,1.277,0.641,1.897
			c0.255,2.55,0.469,5.105,0.612,7.664c0.086,1.561,0.016,1.564-1.525,1.412c-0.057-0.005-0.111-0.027-0.167-0.032
			c-2.044-0.164-4.088-0.328-6.042-0.483c0,2.842,0,5.705,0,8.653c0.067-0.004,0.273-0.015,0.478-0.033
			c2.052-0.18,4.1-0.394,6.154-0.53c1.112-0.073,1.118-0.015,1.118,1.081c0,10.885-0.012,21.771,0.022,32.656
			c0.002,0.875-0.276,1.363-1.002,1.815c-2.241,1.394-4.24,3.084-6.101,5.38c0.535,0.09,0.901,0.24,1.243,0.196
			c3.592-0.461,7.091-0.147,10.253,1.695c2.428,1.415,4.692,3.111,6.667,4.44c3.74-3.597,7.561-7.273,11.42-10.986
			c-0.489-0.46-1.058-0.995-1.764-1.659C208.133,234.827,207.639,235.44,207.163,236.031z"/>
		<path fill="#808184" d="M236.333,237.09c-1.796-1.202-3.484-2.38-5.23-3.468c-0.577-0.359-0.795-0.714-0.794-1.393
			c0.031-16.65,0.025-33.3,0.06-49.95c0.01-4.724,0.44-9.415,1.5-14.032c0.237-1.033,0.477-2.064,0.723-3.13
			c-0.13,0.029-0.195,0.026-0.236,0.056c-0.388,0.282-0.768,0.576-1.158,0.856c-4.616,3.311-9.159,6.787-15.231,6.745
			c0.538,1.058,1.146,1.991,1.504,3.011c0.9,2.566,0.962,5.274,0.969,7.948c0.039,16.679,0.015,33.357,0.036,50.036
			c0.001,0.689-0.24,1.056-0.799,1.413c-2.007,1.28-3.875,2.735-5.508,4.811c0.378,0.111,0.689,0.316,0.94,0.258
			c1.943-0.45,3.744-0.031,5.512,0.761c2.62,1.172,4.988,2.75,7.273,4.464c0.782,0.586,1.539,1.207,2.235,1.755
			c3.909-3.222,7.738-6.379,11.611-9.572c-0.508-0.642-0.988-1.247-1.475-1.862C237.529,236.287,236.879,236.724,236.333,237.09z"/>
		<path fill="#808184" d="M540.344,235.319c-0.395,0.001-0.787,0.102-1.18,0.118c-2.164,0.089-3.43-0.856-3.85-2.986
			c-0.205-1.046-0.342-2.125-0.344-3.188c-0.029-8.426,0.012-16.853-0.047-25.279c-0.008-1.308,0.324-2.215,1.275-3.153
			c1.885-1.859,2.787-4.274,3.18-6.87c0.031-0.198-0.133-0.425-0.209-0.638c-0.191,0.072-0.4,0.113-0.57,0.222
			c-0.332,0.212-0.619,0.498-0.959,0.69c-2.824,1.587-6.291,1.134-8.654-1.231c-1.291-1.293-2.441-2.729-3.709-4.161
			c-4.893,4.143-10.127,7.938-15.828,11.262c-0.102-0.856-0.172-1.58-0.275-2.297c-0.471-3.284-1.873-5.985-4.967-7.508
			c-1.152-0.569-2.4-0.966-3.637-1.34c-0.344-0.105-0.895,0.027-1.188,0.258c-4.053,3.209-8.072,6.463-12.115,9.686
			c-0.982,0.783-2.02,1.497-3.104,2.296c-0.166-1.262-0.287-2.375-0.459-3.481c-0.645-4.131-2.471-7.354-6.713-8.739
			c-0.479-0.156-0.746-0.143-1.047,0.305c-2.018,3.012-4.623,5.475-7.4,7.766c-1.148,0.947-2.34,1.839-3.758,2.947
			c0.561,0.223,0.922,0.459,1.303,0.502c3.119,0.349,4.996,1.698,5.699,4.244c0.223,0.81,0.389,1.666,0.391,2.501
			c0.029,8.851,0.025,17.702,0.004,26.552c0,0.265-0.213,0.657-0.439,0.776c-2.639,1.39-4.541,3.507-6.018,6.039
			c-0.164,0.281-0.123,0.683-0.176,1.028c0.328-0.014,0.688,0.052,0.982-0.056c2.152-0.795,4.332-1.026,6.549-0.327
			c1.707,0.537,3.105,1.586,4.424,2.755c1.117,0.99,2.236,1.974,3.256,2.873c2.785-3.083,5.762-6.378,8.773-9.711
			c-1.348-1.291-2.889-2.604-4.723-3.531c-0.418-0.212-0.723-0.411-0.723-0.991c0.021-9.133,0.012-18.267,0.033-27.401
			c0-0.284,0.18-0.671,0.402-0.834c2.012-1.46,4.051-2.883,6.086-4.309c0.18-0.125,0.389-0.26,0.596-0.286
			c1.992-0.252,4.594,1.219,5.443,3.052c0.803,1.733,0.98,3.585,0.982,5.456c0.014,8.285,0,16.57,0.02,24.855
			c0.002,0.597-0.18,0.984-0.637,1.361c-2.307,1.904-4.299,4.079-5.631,6.779c0.244,0.547,0.568,0.524,1.033,0.287
			c1.625-0.833,3.346-0.96,5.107-0.556c2.156,0.493,4.053,1.56,5.84,2.806c1.521,1.061,2.967,2.23,4.373,3.298
			c3.367-3.277,6.719-6.539,10.082-9.813c-0.006-0.009-0.014-0.077-0.053-0.107c-2.318-1.819-4.699-3.529-7.604-4.319
			c-0.412-0.113-0.66-0.259-0.658-0.79c0.02-9.331,0.012-18.662,0.025-27.994c0-0.244,0.113-0.604,0.293-0.715
			c1.986-1.228,3.996-2.418,6.018-3.629c0.182,0.236,0.314,0.417,0.453,0.592c1.557,1.947,3.461,3.408,5.904,4.036
			c0.68,0.174,0.873,0.457,0.871,1.147c-0.027,8.201-0.033,16.401-0.008,24.602c0.008,2.457,0.053,4.919,0.229,7.368
			c0.225,3.129,1.197,6.011,4.037,7.713c1.471,0.881,3.221,1.29,4.84,1.925c0.645,0.253,0.98-0.051,1.371-0.544
			c2.773-3.495,5.582-6.962,8.377-10.44c0.133-0.166,0.248-0.344,0.564-0.783C541.61,235.367,540.977,235.317,540.344,235.319z"/>
		<path fill="#808184" d="M370.747,165.621c-3.014,2.54-6.535,2.408-9.385-0.294c-1.086-1.031-2.262-1.965-3.398-2.944
			c0.086-0.178-0.102-0.056-0.289,0.067c-5.568,3.661-11.158,7.288-16.688,11.005c-1.345,0.903-2.623,1.982-3.698,3.188
			c-1.81,2.029-2.147,4.607-2.148,7.222c-0.008,16.428,0.008,32.855-0.028,49.283c-0.003,1.249-0.201,2.541-0.561,3.736
			c-0.695,2.312-2.197,3.365-4.611,3.327c-1.147-0.019-2.365-0.071-3.422-0.459c-2.4-0.881-4.738-1.942-7.07-3
			c-3.055-1.386-6.023-2.977-9.131-4.225c-2.852-1.144-5.883-1.456-8.863-0.392c-2.557,0.911-4.598,2.609-6.411,4.596
			c-2.101,2.3-3.557,4.982-4.807,7.872c0.3,0.154,0.538,0.277,0.794,0.409c0.121-0.157,0.209-0.265,0.291-0.377
			c2.244-3.026,4.811-4.05,8.439-3.021c2.869,0.814,5.648,1.945,8.475,2.912c3.152,1.078,6.305,2.155,9.699,2.149
			c2.713-0.004,5.312-0.659,7.896-1.379c6.423-1.791,12.274-4.654,17.231-9.21c3.275-3.01,5.027-6.584,4.904-11.146
			c-0.152-5.708-0.035-11.422-0.035-17.134c0-0.327,0-0.654,0-0.983c3.527,0,6.928,0,10.426,0c0,9.069,0,18.071,0,27.066
			c1.016,0,1.93,0,2.9,0c0-0.46,0-0.854,0-1.248c0-18.521,0.004-37.04-0.018-55.56c-0.002-0.741,0.219-1.101,0.906-1.367
			c1.998-0.773,3.744-1.967,5.285-3.447c2.006-1.928,3.682-4.11,5.033-6.614c-0.275-0.253-0.523-0.48-0.846-0.773
			C371.303,165.148,371.026,165.386,370.747,165.621z M358.286,195.317c-3.408,0-6.807,0-10.303,0
			c-0.018-0.31-0.051-0.634-0.051-0.958c-0.004-6.835,0.018-13.671-0.025-20.506c-0.006-0.928,0.26-1.5,1.115-1.805
			c4.324,3.414,4.324,3.414,9.264,4.672C358.286,182.884,358.286,189.061,358.286,195.317z"/>
		<path fill="#808184" d="M419.106,236.359c-2.346,0.709-4.832-0.499-5.441-2.866c-0.408-1.596-0.654-3.28-0.664-4.927
			c-0.062-8.991-0.027-17.982-0.039-26.973c-0.002-0.509,0.16-0.773,0.6-1.067c1.07-0.719,2.152-1.462,3.066-2.363
			c1.16-1.146,1.822-2.6,1.93-4.312c-5.996,2.342-8.766,0.241-11.66-5.02c-0.281,0.383-0.541,0.748-0.811,1.103
			c-1.873,2.462-3.838,4.833-6.625,6.33c-2.215,1.188-5.275,1.583-7.799-0.724c-1.311-1.199-2.26-2.665-2.984-4.275
			c-0.357-0.79-0.672-1.598-1.027-2.453c-4.129,4.129-8.787,7.394-14.119,9.805c4.152,4.665,8.225,9.24,12.312,13.832
			c-1.432,1.136-2.863,2.19-4.199,3.35c-5.391,4.679-8.455,10.358-7.531,17.734c0.479,3.823,1.988,7.09,4.998,9.588
			c3.379,2.807,7.35,3.972,11.656,4.183c0.26,0.013,0.584-0.164,0.791-0.35c1.309-1.166,2.59-2.361,3.883-3.543
			c1.977-1.808,3.955-3.613,6.057-5.531c0.182,0.648,0.303,1.136,0.455,1.615c0.709,2.249,1.775,4.272,3.705,5.732
			c1.898,1.439,4.123,1.896,6.428,2.069c0.203,0.015,0.49-0.218,0.629-0.413c2.312-3.24,4.611-6.49,6.895-9.75
			c0.154-0.217,0.172-0.528,0.252-0.795C419.61,236.343,419.338,236.289,419.106,236.359z M401.09,235.08c0,0.336,0,0.672,0,0.992
			c-5.002,1.123-10.021,0.312-13.465-4.133c-3.67-4.734-3.834-12.02-0.387-16.902c0.096-0.137,0.205-0.265,0.375-0.483
			c2.674,2.959,5.318,5.884,8.02,8.875c0.82-0.649,1.635-1.292,2.561-2.025c-5.738-6.46-11.443-12.881-17.146-19.301
			c5.572,2.649,10.752,1.933,15.438-1.501c1.502,0.884,2.889,1.673,4.236,2.522c0.211,0.134,0.352,0.542,0.354,0.825
			c0.023,3.732,0.016,7.464,0.016,11.197C401.09,221.79,401.09,228.435,401.09,235.08z"/>
		<path fill="#808184" d="M459.112,195.549c-1.889,0.132-3.256-1.042-4.223-2.545c-0.814-1.264-1.43-2.655-2.16-4.039
			c-3.072,4.807-6.648,9.25-10.906,13.325c-0.723-5.684-2.002-10.911-7.859-13.526c-3.127,4.368-6.979,7.945-11.572,11.188
			c0.604,0.244,0.99,0.502,1.4,0.549c3.574,0.404,5.381,2.053,5.928,5.536c0.135,0.861,0.17,1.745,0.172,2.618
			c0.012,8.115,0,16.23,0.02,24.345c0.002,0.59-0.186,0.888-0.717,1.164c-2.9,1.512-4.945,3.889-6.545,6.683
			c-0.102,0.176-0.064,0.56,0.066,0.705c0.133,0.147,0.465,0.173,0.703,0.152c0.211-0.019,0.406-0.187,0.617-0.267
			c2.992-1.136,6.02-1.458,8.928,0.127c2.221,1.211,4.328,2.635,6.459,4.008c0.793,0.51,1.508,1.14,2.141,1.625
			c4.172-4.131,8.242-8.165,12.344-12.227c-0.547-0.61-1.164-1.299-1.803-2.011c-0.961,0.805-1.889,1.579-2.607,2.181
			c-2.533-1.093-4.912-2.103-7.27-3.161c-0.221-0.099-0.443-0.488-0.443-0.744c-0.023-8.086-0.021-16.173-0.01-24.26
			c0-0.258,0.064-0.599,0.234-0.761c1.365-1.303,2.764-2.573,4.135-3.839c0.801,0.636,1.574,1.346,2.438,1.921
			c3.982,2.656,9.014,2.106,12.016-1.281c2.209-2.493,2.701-5.562,2.971-8.891c-0.381,0.186-0.594,0.327-0.828,0.399
			C461.534,194.892,460.34,195.463,459.112,195.549z"/>
		<path fill="#808184" d="M317.108,220.854c-0.014,3.105-0.34,6.144-2.389,8.93c0.502,0.048,0.925,0.225,1.203,0.094
			c3.373-1.585,6.738-3.189,9.512-5.774c1.988-1.854,3.551-3.972,3.975-6.718c0.253-1.641,0.424-3.31,0.436-4.968
			c0.066-9.355,0.055-18.71,0.115-28.064c0.012-1.687,0.155-3.384,0.402-5.052c0.14-0.946,0.613-1.842,1-2.938
			c-0.423,0-0.855-0.136-1.111,0.021c-3.227,1.974-6.5,3.886-9.264,6.52c-1.402,1.336-2.785,2.708-3.227,4.668
			c-0.32,1.421-0.498,2.883-0.627,4.337c-0.099,1.116-0.02,2.249-0.02,3.488c-0.435,0-0.793-0.007-1.151,0.001
			c-2.314,0.052-4.642,0.04-6.845,0.904c-2.313,0.909-3.96,2.477-4.238,5.032c-0.164,1.494-0.162,3.059,0.096,4.533
			c0.428,2.461,1.703,4.347,4.482,4.896c0.066-0.377,0.105-0.683,0.174-0.981c0.24-1.04,0.565-2.028,1.68-2.476
			c1.865-0.75,3.805-0.545,5.803-0.521c0,0.396,0,0.702,0,1.008C317.114,212.147,317.129,216.501,317.108,220.854z"/>
		<path fill="#808184" d="M298.895,175.852c2.15-3.074,5.148-3.925,8.709-3.252c3.328,0.629,6.649,1.286,9.986,1.86
			c2.844,0.49,5.713,0.73,8.599,0.361c4.05-0.518,7.396-2.465,10.376-5.145c2.068-1.86,3.861-3.951,5.346-6.374
			c-0.268-0.204-0.508-0.39-0.766-0.588c-0.592,0.452-1.102,0.853-1.621,1.238c-2.104,1.561-4.537,1.506-6.923,1.201
			c-3.579-0.458-7.138-1.09-10.694-1.712c-3.437-0.601-6.875-1.018-10.361-0.544c-7.535,1.022-11.844,6.822-13.855,13.068
			C298.116,176.195,298.489,176.433,298.895,175.852z"/>
	</g>
	<g>
		<path fill="#808184" d="M224.572,0c0,0,3.004,1.789,4.623,7.526c1.617,5.737,0.012,3.778,0.661,8.976
			c4.595,6.34,9.085,9.891,19.383,12.617c0,0,3.835,3.189,28.933-0.085c25.098-3.275,30.448-4.21,40.733-2.863
			c10.286,1.348,15.861,1.831,19.324,4.49c3.584,1.839,9.639,7.307,9.639,17.219c-1.84,4.38-4.413,5.947-4.413,5.947
			s0.38,4.402-1.254,8.894c-1.633,4.492-7.31,12.638-4.851,15.639c2.462,3,4.432,5.183,5.267,7.615
			c0.838,2.431-4.201,15.393-5.055,17.869c-0.854,2.478-0.794,6.961-0.063,8.613c0.729,1.651-0.188,2.175-1.988,3.832
			c-1.8,1.656-2.551,2.995-2.551,2.995s-6.478,0.963-7.372-0.519c-0.895-1.48,1.383-0.985,3.904-7.953
			c1.504-9.223,1.378-17.458,1.378-17.458l-3.166-6.011c0,0-1.736,2.669-3.101,5.892c-1.367,3.222-0.167-1.208-2.934,6.66
			c-2.766,7.868-4.139,9.097-4.139,11.415s0.814,1.647-0.198,4.049c-1.013,2.403-1.741,0.291-2.642,3.712
			c-4.663,0.985-9.746,0.029-9.746,0.029s4.003-7.057,6.875-13.131c2.871-6.074,3.609-10.676,1.805-13.563
			c-1.418-5.052-0.367-4.645-3.267-7.146c-2.898-2.5-3.485-5.199-3.485-5.199s-16.416,4.404-32.21,2.202
			c-15.797-2.202-16.059,0.319-16.059,0.319s2.22,11.165,0.661,14.888c0.296,6.58,1.319,9.499,2.117,11.669
			c0.798,2.17,1.709,4.992-0.534,6.615c-2.244,1.623-2.158,4.343-2.158,4.343s-6.194,0.827-7.088-0.085
			c-0.894-0.913,2.835-4.071,2.835-5.813c0-1.741-2.629-12.344-2.629-13.961s-1.441-4.008-1.441-4.008l-0.751,1.048l-0.637,5.497
			c0,0-1.195,3.12-1.195,4.743c0,1.623,1.109,4.275,1.109,4.275s1.343,1.355-1.271,4.332c-2.612,2.976-2.151,4.008-5.966,4.008
			c-3.814,0-3.325-1.127-3.325-1.127s2.861-4.492,2.861-5.852c0-1.361,2.248-10.425,0.529-14.045
			c-1.72-3.62-3.513-4.955-2.523-14.588c-1.367-4.344-1.707-3.559-3.244-5.625c-1.537-2.067-7.515-10.542-9.449-16.104
			c-1.935-5.562-4.881-10.186-5.685-13.581c-0.802-3.395-3.028-8.102-9.694-4.715c-6.667,3.388-11.698,5.265-15.526,3.129
			c-3.828-2.136-3.196-6.126-3.196-8.459c0-2.334,0.516-1.576,4.116-8.071c3.599-6.496,5.314-11.099,16.683-16.427
			c-1.888-7.697-1.996-11.278,2.051-11.278c3.415,3.234,3.911,5.232,3.911,5.232s1.794,4.163,3.234-0.535
			C223.117,2.593,224.572,0,224.572,0z"/>
	</g>
	<polygon fill="#FFFFFF" stroke="#808184" stroke-width="5" stroke-linejoin="round" stroke-miterlimit="10" points="2.5,361.884 
		10.328,383.896 2.5,405.909 235.609,405.909 137.811,361.884 	"/>
	<polygon fill="#FFFFFF" stroke="#808184" stroke-width="5" stroke-linejoin="round" stroke-miterlimit="10" points="
		63.475,300.052 63.475,344.077 235.609,405.909 235.609,383.896 235.609,361.884 	"/>
	<g>
		<polygon fill="#FFFFFF" stroke="#808184" stroke-width="5" stroke-linejoin="round" stroke-miterlimit="10" points="
			545.053,361.884 537.226,383.896 545.053,405.909 311.944,405.909 409.744,361.884 		"/>
		<polygon fill="#FFFFFF" stroke="#808184" stroke-width="5" stroke-linejoin="round" stroke-miterlimit="10" points="
			484.079,300.052 484.079,344.077 311.944,405.909 311.944,383.896 311.944,361.884 		"/>
	</g>
	
		<rect x="63.475" y="300.052" fill="#FFFFFF" stroke="#808184" stroke-width="5" stroke-linejoin="round" stroke-miterlimit="10" width="420.604" height="44.024"/>
</g>
</svg>
